<svg xmlns="http://www.w3.org/2000/svg" version="1.1" viewBox="176.59 227 663.11 502.4">
<path d="M0 0 C2.16229876 -0.00271804 4.32459658 -0.00628349 6.4868927 -0.01062012 C12.29166768 -0.01964153 18.09637061 -0.01624495 23.90114665 -0.00986195 C29.99794744 -0.0047581 36.09474252 -0.00950457 42.19154358 -0.01263428 C52.40830584 -0.01625709 62.62503904 -0.01151493 72.84179688 -0.00195312 C84.65163225 0.00897198 96.46139878 0.00536978 108.27123255 -0.00560594 C118.43724086 -0.01467486 128.60322844 -0.01596734 138.76923949 -0.0107286 C144.83053027 -0.00761234 150.89178862 -0.00719103 156.95307732 -0.01380157 C162.63726355 -0.01957015 168.32136047 -0.01558714 174.00553703 -0.00401306 C176.09171398 -0.00136575 178.17789844 -0.00213278 180.26407242 -0.00653839 C183.10774513 -0.01199125 185.95113023 -0.00516328 188.79478455 0.00482178 C189.62258657 0.00036033 190.45038859 -0.00410111 191.30327553 -0.00869775 C195.50385163 0.01997894 198.81896068 0.23344594 202.61352539 2.25878906 C205.23653456 4.97958585 206.06420244 6.94157929 206.11352539 10.69628906 C205.47879444 33.21412516 195.49979558 57.61002787 180.61352539 74.25878906 C179.87489258 75.09152344 179.13625977 75.92425781 178.37524414 76.78222656 C168.60254397 87.1787161 157.17354837 93.91591684 143.61352539 98.25878906 C142.88649414 98.49210937 142.15946289 98.72542969 141.41040039 98.96582031 C131.05989162 101.89004942 119.97076337 101.38881621 109.32666016 101.32470703 C107.81743527 101.31950234 106.30820859 101.31479655 104.79898071 101.31054688 C101.56994034 101.30067088 98.34093032 101.28784659 95.11190987 101.27282333 C89.99559294 101.24958436 84.87927972 101.23640486 79.76292419 101.22512817 C65.22112992 101.19183853 50.67939449 101.15012256 36.13769531 101.08740234 C28.09024536 101.05277704 20.04283826 101.0290363 11.99532169 101.01719391 C6.91974453 101.00914245 1.84445083 100.988015 -3.23103511 100.95698905 C-6.40009937 100.94087119 -9.56908459 100.93757026 -12.73818588 100.9377594 C-14.19576261 100.93535798 -15.65334229 100.92787474 -17.11086082 100.91463089 C-26.00289093 100.83727003 -33.88221197 101.61513945 -42.38647461 104.25878906 C-43.26153373 104.52810682 -44.13659285 104.79742458 -45.03816891 105.07490349 C-58.94590658 109.61620582 -68.57764598 120.48286278 -75.07397461 133.07128906 C-79.69753398 142.51721713 -81.47907755 151.2322341 -82.46069336 161.62597656 C-82.55072632 162.55337646 -82.64075928 163.48077637 -82.73352051 164.4362793 C-82.95388457 166.71020213 -83.17145789 168.98435543 -83.38647461 171.25878906 C-82.16872723 171.2532583 -80.95097984 171.24772755 -79.69633102 171.24202919 C-50.80213972 171.11213689 -21.9079535 171.01317355 6.98646213 170.95239709 C10.54134961 170.94489267 14.09623648 170.93712675 17.65112305 170.92919922 C18.71271274 170.92683842 18.71271274 170.92683842 19.79574868 170.92442994 C31.26152678 170.8983081 42.72712474 170.85099311 54.1927959 170.79587229 C65.95397304 170.73980157 77.71505572 170.70644456 89.47636104 170.69425809 C96.08414437 170.6864217 102.69151888 170.66794754 109.29917145 170.62440872 C115.51425129 170.58378709 121.72875258 170.57109914 127.94395256 170.58014297 C130.2289106 170.57848768 132.51388732 170.56649136 134.79873085 170.54355621 C137.91156252 170.51383356 141.02219136 170.52083074 144.1350708 170.53726196 C145.04557418 170.51978491 145.95607756 170.50230787 146.89417195 170.48430121 C149.2820881 170.51852526 151.3156214 170.60914885 153.61352539 171.25878906 C156.87470059 174.78517304 157.5995279 176.37694737 157.67602539 181.19628906 C153.33589015 206.64139569 138.17367656 227.24644516 120.61352539 245.25878906 C119.61192383 246.31453125 119.61192383 246.31453125 118.59008789 247.39160156 C106.68067033 258.64199997 90.3409918 266.30600828 74.61352539 270.25878906 C73.37602539 270.57783203 73.37602539 270.57783203 72.11352539 270.90332031 C60.72455804 273.50704805 48.95617151 273.32619983 37.34008789 273.31347656 C35.48061272 273.31232849 35.48061272 273.31232849 33.58357239 273.31115723 C15.4631426 273.28328747 -2.65624456 273.0213982 -20.77502441 272.79522705 C-28.53593302 272.69851135 -36.29686844 272.60406402 -44.05782127 272.51097107 C-46.72291105 272.47862349 -49.38798258 272.44501301 -52.05305481 272.41125488 C-62.16491935 272.28654797 -72.27379464 272.23113075 -82.38647461 272.25878906 C-82.38370923 272.83378647 -82.38094385 273.40878387 -82.37809467 274.00120544 C-82.31173707 288.01557123 -82.26214658 302.02991335 -82.23103809 316.04440308 C-82.21559299 322.82181453 -82.19454884 329.59912087 -82.16015625 336.37646484 C-82.12697264 342.91870732 -82.10961374 349.46088168 -82.10184288 356.00320435 C-82.09630596 358.49742347 -82.08549374 360.99163673 -82.06928444 363.48580933 C-82.04746234 366.98318317 -82.04450976 370.48010794 -82.04589844 373.97753906 C-82.03511261 375.00541031 -82.02432678 376.03328156 -82.01321411 377.09230042 C-82.04420144 384.31915906 -82.99425415 389.94054779 -87.32397461 395.94628906 C-95.51908481 402.1344335 -106.23177212 404.57884719 -116.01147461 407.19628906 C-117.26041504 407.53547363 -118.50935547 407.8746582 -119.79614258 408.22412109 C-171.55761318 422.17321978 -171.55761318 422.17321978 -180.76147461 417.57128906 C-185.15431632 413.7014047 -187.06291441 409.80270185 -187.58949167 404.03516966 C-187.62522481 403.22963493 -187.66095796 402.42410019 -187.69777393 401.59415531 C-187.75961031 400.2238883 -187.75961031 400.2238883 -187.82269591 398.82593912 C-187.88070977 397.35532214 -187.88070977 397.35532214 -187.93989563 395.85499573 C-187.98199608 394.82949979 -188.02409653 393.80400386 -188.06747276 392.74743229 C-188.46426739 382.4036326 -188.534861 372.06960874 -188.53173828 361.71948242 C-188.53474221 359.68284546 -188.5381475 357.64620906 -188.54191589 355.60957336 C-188.55062978 350.1550836 -188.55308845 344.70060959 -188.55373168 339.24611354 C-188.55444885 335.82242026 -188.55659547 332.39873084 -188.5592289 328.97503853 C-188.56843703 316.98685584 -188.57256907 304.99868416 -188.57177734 293.01049805 C-188.57117617 281.90360362 -188.58174759 270.7967577 -188.59752101 259.68987554 C-188.61065994 250.08999435 -188.61595867 240.49012892 -188.61532193 230.89023882 C-188.61506903 225.18447277 -188.61780481 219.47875003 -188.62849998 213.77299309 C-188.63829022 208.40553966 -188.6381866 203.03817008 -188.63098335 197.67071342 C-188.62995129 195.72067642 -188.63221644 193.77063388 -188.63834381 191.82060623 C-188.68996286 174.23081983 -188.02119988 156.42553436 -184.19897461 139.19628906 C-183.98539307 138.21080078 -183.77181152 137.2253125 -183.55175781 136.20996094 C-173.35103174 91.05339688 -146.1308434 52.66303087 -107.38647461 27.25878906 C-73.86579502 6.13481051 -38.94879434 -0.08357629 0 0 Z " fill="#0084D6" transform="translate(487.386474609375,228.7412109375)"/>
<path d="M0 0 C5.34632871 0.55743712 10.33640085 2.26745759 15.4375 3.875 C22.99382505 6.22774271 30.40225956 7.99296293 38.2265625 9.1640625 C41 10 41 10 42.484375 11.765625 C45.32596956 24.07920144 29.80419516 46.76889229 24.11572266 57.82617188 C23.3397546 59.33803611 22.56897159 60.85256821 21.80224609 62.36914062 C11.63625155 82.47250324 0.07459485 101.65579658 -13 120 C-13.50354004 120.71462402 -14.00708008 121.42924805 -14.52587891 122.16552734 C-21.82134108 132.51740891 -29.45628575 142.49685789 -37.54248047 152.24267578 C-39.64444922 154.7770093 -41.72829574 157.32605037 -43.8125 159.875 C-44.51117187 160.72449219 -45.20984375 161.57398438 -45.9296875 162.44921875 C-47.39085946 164.24949289 -48.83175523 166.06631596 -50.2578125 167.89453125 C-50.97710938 168.81621094 -51.69640625 169.73789062 -52.4375 170.6875 C-53.07558594 171.51636719 -53.71367188 172.34523438 -54.37109375 173.19921875 C-54.90863281 173.79347656 -55.44617188 174.38773438 -56 175 C-56.66 175 -57.32 175 -58 175 C-58.24363281 175.57234375 -58.48726562 176.1446875 -58.73828125 176.734375 C-60.22517298 179.40433538 -61.98083908 181.13829007 -64.1875 183.25 C-67.06501117 186.0587808 -69.82989001 188.87666256 -72.4375 191.9375 C-78.52240337 199.00838308 -85.21859897 205.47750477 -92.3125 211.52734375 C-93.72860333 212.76315614 -95.06335199 214.09133493 -96.375 215.4375 C-98 217 -98 217 -100 217 C-100 217.66 -100 218.32 -100 219 C-105.47619048 224 -105.47619048 224 -108 224 C-108 224.66 -108 225.32 -108 226 C-109.54888502 227.41706502 -111.16761534 228.75809496 -112.8125 230.0625 C-113.823125 230.87074219 -114.83375 231.67898438 -115.875 232.51171875 C-117.421875 233.74341797 -117.421875 233.74341797 -119 235 C-120.77283997 236.45589329 -122.54371984 237.9141771 -124.3125 239.375 C-136.56139507 249.37480417 -149.10585877 258.84654227 -162 268 C-162.81839355 268.58217285 -163.63678711 269.1643457 -164.47998047 269.76416016 C-175.80297181 277.80429703 -187.25163518 285.59422448 -199 293 C-200.04671875 293.66 -201.0934375 294.32 -202.171875 295 C-205.43196801 297.02700084 -208.71084462 299.02070725 -212 301 C-212.76344727 301.46100098 -213.52689453 301.92200195 -214.31347656 302.39697266 C-233.08670945 313.70497423 -252.2129245 324.4368693 -271.94042969 333.99902344 C-273.38885062 334.70297387 -274.83458602 335.41246364 -276.27832031 336.12597656 C-332.17279028 363.74574899 -394.73401497 384.04022587 -457.4375 384.375 C-458.27568268 384.3830365 -459.11386536 384.391073 -459.97744751 384.39935303 C-490.55071635 384.62205309 -521.87764121 377.75202783 -544.75390625 356.33984375 C-561.18402965 339.22394129 -564.59275773 318.64393446 -564.40454102 295.890625 C-564.20923969 286.90563171 -563.56356374 278.65202761 -561 270 C-560.48953125 268.14955078 -560.48953125 268.14955078 -559.96875 266.26171875 C-553.14907292 242.44635996 -542.42349137 219.14749931 -528 199 C-526.96126178 197.49245377 -525.92503336 195.9831767 -524.890625 194.47265625 C-516.99231239 182.98715138 -508.69217314 171.89435567 -500 161 C-499.44425293 160.29858887 -498.88850586 159.59717773 -498.31591797 158.87451172 C-474.75040173 129.16688265 -474.75040173 129.16688265 -467 125 C-464.453125 125.0546875 -464.453125 125.0546875 -462 126 C-458.27375697 130.63710244 -456.04452056 136.64289616 -456.47265625 142.60546875 C-458.70770624 152.7542513 -465.34855037 160.10730386 -472.046875 167.6328125 C-476.07014054 172.1647374 -479.56788529 177.0102851 -483 182 C-483.38365723 182.55236328 -483.76731445 183.10472656 -484.16259766 183.67382812 C-504.73647999 213.38893999 -523.45568016 250.24822279 -518.53125 287.55078125 C-516.01592496 301.25031943 -510.35921051 312.57068824 -499 320.75 C-492.52262851 325.35203874 -492.52262851 325.35203874 -485 327 C-485 327.66 -485 328.32 -485 329 C-482.03 329.33 -479.06 329.66 -476 330 C-476 330.66 -476 331.32 -476 332 C-472.38905273 332.31486924 -468.77639197 332.59184444 -465.16064453 332.84570312 C-463.68208218 332.95129085 -462.20389458 333.06222512 -460.72607422 333.17773438 C-399.94691816 337.80426314 -338.52235961 314.88844431 -285 288 C-284.21608887 287.6066748 -283.43217773 287.21334961 -282.62451172 286.80810547 C-260.79618166 275.76564827 -239.44657177 263.42245029 -219 250 C-218.04077637 249.37061523 -217.08155273 248.74123047 -216.09326172 248.09277344 C-204.23519268 240.28959195 -192.41999963 232.43582919 -181 224 C-180.37222656 223.53674316 -179.74445313 223.07348633 -179.09765625 222.59619141 C-174.37178417 219.099 -169.6756037 215.56408465 -165 212 C-164.37528809 211.52385254 -163.75057617 211.04770508 -163.10693359 210.55712891 C-155.04253509 204.38345734 -147.44346802 197.91597816 -140 191 C-138.48607494 189.61739741 -136.96593945 188.24154012 -135.4375 186.875 C-134.81746094 186.31554687 -134.19742187 185.75609375 -133.55859375 185.1796875 C-132 184 -132 184 -130 184 C-130 183.34 -130 182.68 -130 182 C-128.7421875 180.765625 -128.7421875 180.765625 -126.875 179.25 C-121.85385937 175.01454144 -117.31293511 170.34070942 -112.74951172 165.62402344 C-112.16443848 165.02750977 -111.57936523 164.43099609 -110.9765625 163.81640625 C-110.45143066 163.27443604 -109.92629883 162.73246582 -109.38525391 162.17407227 C-108 161 -108 161 -106 161 C-105.73662842 160.40993164 -105.47325684 159.81986328 -105.2019043 159.21191406 C-103.94798348 156.90427185 -102.64804739 155.43272606 -100.76953125 153.609375 C-100.1350708 152.98667725 -99.50061035 152.36397949 -98.84692383 151.72241211 C-98.17556396 151.07151611 -97.5042041 150.42062012 -96.8125 149.75 C-95.43579181 148.39365875 -94.06076579 147.03560775 -92.6875 145.67578125 C-92.07003906 145.06903564 -91.45257812 144.46229004 -90.81640625 143.8371582 C-87.70983749 140.69509773 -84.837403 137.38377382 -82 134 C-81.10433687 132.96617056 -80.20703955 131.93375584 -79.30859375 130.90234375 C-67.64197159 117.47633347 -56.94287231 103.41291239 -46.47998047 89.03369141 C-45.30489215 87.41896266 -44.12413563 85.80835911 -42.94140625 84.19921875 C-25.0536578 59.36227305 -11.24135399 31.96441447 -1.72094727 2.95507812 C-1 1 -1 1 0 0 Z " fill="#0082D4" transform="translate(741,345)"/>
<path d="M0 0 C10.79496331 7.99063794 19.31996309 18.13019896 22.44140625 31.5078125 C24.76250599 48.86378351 22.71123527 65.1578239 11.87109375 79.37890625 C1.27308756 91.79696359 -10.24798609 98.0589057 -26.5 99.6875 C-42.02116682 100.32688895 -55.78659607 95.94536014 -67.4375 85.625 C-75.51325547 78.07273327 -80.16587442 69.61424184 -82.125 58.75 C-82.785 58.42 -83.445 58.09 -84.125 57.75 C-84.50547572 37.64332171 -82.92927768 21.07076683 -68.89453125 5.47265625 C-50.47810235 -12.45592023 -21.03350686 -14.11882189 0 0 Z " fill="#0083D5" transform="translate(816.125,237.25)"/>
<path d="M0 0 C1.24546405 2.49092811 0.7767578 3.41080733 0 6 C-0.66 6 -1.32 6 -2 6 C-2.268125 6.7425 -2.53625 7.485 -2.8125 8.25 C-3.95276751 10.89061949 -5.09380306 12.85552844 -7 15 C-7.66 15 -8.32 15 -9 15 C-9.114646 15.57258545 -9.22929199 16.1451709 -9.34741211 16.73510742 C-10.06383342 19.22154233 -11.080689 21.03997294 -12.44140625 23.23828125 C-12.93898437 24.05119629 -13.4365625 24.86411133 -13.94921875 25.70166016 C-14.48160156 26.5632373 -15.01398438 27.42481445 -15.5625 28.3125 C-28.24160243 48.60768536 -28.24160243 48.60768536 -35.5078125 71.1875 C-36 73 -36 73 -38 75 C-46.25606842 97.76268257 -49.05218293 124.90644567 -41 148 C-40.49146484 149.57201172 -40.49146484 149.57201172 -39.97265625 151.17578125 C-32.53443663 171.58456178 -15.66412542 181.95047245 3 191 C3.62108643 191.30325195 4.24217285 191.60650391 4.88208008 191.91894531 C8.99531828 193.81567877 12.83104299 194.59550454 17.3125 195.125 C23.82889201 195.914446 23.82889201 195.914446 26 197 C26 197.66 26 198.32 26 199 C33.2733251 199.05121855 40.54660273 199.08594842 47.82006836 199.10986328 C50.288185 199.11984588 52.75629004 199.13343668 55.22436523 199.15087891 C73.25765952 199.34945439 73.25765952 199.34945439 91.15234375 197.4453125 C95.14717595 196.82060623 98.96636 196.85846877 103 197 C100.14337723 198.55875078 97.56617715 199.44401453 94.375 200.0625 C93.59898437 200.21847656 92.82296875 200.37445312 92.0234375 200.53515625 C82.07137295 202.06525403 72.1949657 202.21790008 62.14453125 202.24023438 C59.53352197 202.24987621 56.9233234 202.28094926 54.3125 202.3125 C24.3122359 202.50054554 -6.36172362 195.29892669 -28.75390625 174.33984375 C-45.18402965 157.22394129 -48.59275773 136.64393446 -48.40454102 113.890625 C-48.20923969 104.90563171 -47.56356374 96.65202761 -45 88 C-44.6596875 86.76636719 -44.319375 85.53273438 -43.96875 84.26171875 C-37.15633173 60.47170882 -26.47903399 37.09228268 -12 17 C-10.94636223 15.50369753 -9.89442154 14.00619928 -8.84375 12.5078125 C-5.90967971 8.32864754 -2.95982452 4.16095572 0 0 Z " fill="#2179B7" transform="translate(225,527)"/>
<path d="M0 0 C2.16126564 -0.00299678 4.32253075 -0.0064005 6.48379517 -0.01017761 C12.31788862 -0.01896217 18.15196739 -0.02135318 23.98606682 -0.0219934 C27.63303147 -0.02270627 31.27999244 -0.02484491 34.92695618 -0.02749062 C47.654106 -0.03672078 60.38124538 -0.04082782 73.10839844 -0.04003906 C84.96977455 -0.03943666 96.83110542 -0.05002618 108.69247007 -0.06578273 C118.88805718 -0.07884382 129.08362946 -0.08422367 139.27922487 -0.08358365 C145.36409889 -0.08332854 151.44893254 -0.08618791 157.53379822 -0.0967617 C163.24661134 -0.10642027 168.95934524 -0.10653732 174.6721611 -0.09924507 C176.7696227 -0.09819692 178.86708919 -0.10057571 180.96454239 -0.10660553 C183.82390839 -0.11429482 186.68299856 -0.10970121 189.5423584 -0.10197449 C190.37493526 -0.10711805 191.20751212 -0.11226161 192.06531858 -0.11756104 C196.27727062 -0.09234917 199.60431957 0.11126347 203.40820312 2.14526367 C206.03121229 4.86606046 206.85888017 6.8280539 206.90820312 10.58276367 C206.67263031 20.76782381 203.62110773 31.50654985 200.40820312 41.14526367 C199.74820313 41.14526367 199.08820313 41.14526367 198.40820312 41.14526367 C198.92720086 37.71441548 199.5729554 34.34590917 200.38085938 30.97338867 C203.53346369 19.19062099 203.53346369 19.19062099 203.40820312 7.14526367 C202.41820312 5.66026367 202.41820312 5.66026367 201.40820312 4.14526367 C198.35684744 3.8489591 195.50823561 3.75004285 192.45428467 3.777771 C191.51506959 3.77450216 190.57585452 3.77123332 189.60817838 3.76786542 C186.4407729 3.76054562 183.273823 3.77477977 180.10644531 3.78881836 C177.84317953 3.78802798 175.57991389 3.78593223 173.31665039 3.78262329 C167.150672 3.777472 160.98485943 3.79106348 154.81890774 3.80815029 C148.36586849 3.82316192 141.91283162 3.82201187 135.45977783 3.82281494 C124.60824419 3.82651321 113.75678216 3.84140967 102.90527344 3.86401367 C91.76203897 3.88720832 80.61884436 3.90142918 69.47558594 3.9050293 C68.44877311 3.90536345 68.44877311 3.90536345 67.4012166 3.90570435 C66.02202555 3.90614698 64.6428345 3.906589 63.26364346 3.90703042 C62.58315246 3.90724998 61.90266147 3.90746955 61.20154953 3.90769577 C60.52269114 3.90791176 59.84383276 3.90812774 59.14440291 3.90835027 C47.86295699 3.91228996 36.58151887 3.92498926 25.3000803 3.93804264 C21.46430295 3.94212884 17.62852599 3.94506119 13.7927475 3.94783783 C7.74190284 3.95276253 1.69108842 3.96301868 -4.35974121 3.97727585 C-6.57273841 3.98176729 -8.78573965 3.98462996 -10.99874115 3.98568344 C-22.24287631 3.99223237 -33.38780669 4.08843268 -44.59179688 5.14526367 C-31.32076626 -2.00067589 -14.62110946 -0.00406547 0 0 Z " fill="#2681C1" transform="translate(486.591796875,228.854736328125)"/>
<path d="M0 0 C0.99 0.33 1.98 0.66 3 1 C-8.98214967 10.54510228 -22.10902772 17.2574551 -37 21 C-37.825 21.21269531 -38.65 21.42539062 -39.5 21.64453125 C-50.88896735 24.24825898 -62.65735388 24.06741076 -74.2734375 24.0546875 C-76.13291267 24.05353943 -76.13291267 24.05353943 -78.029953 24.05236816 C-96.15038279 24.02449841 -114.26976995 23.76260914 -132.3885498 23.53643799 C-140.14945841 23.43972229 -147.91039383 23.34527496 -155.67134666 23.25218201 C-158.33643644 23.21983442 -161.00150797 23.18622395 -163.6665802 23.15246582 C-173.77844474 23.02775891 -183.88732003 22.97234169 -194 23 C-193.99815641 23.57868458 -193.99631283 24.15736916 -193.99441338 24.75358963 C-193.95024743 38.8333326 -193.91714981 52.91306518 -193.89637566 66.9928627 C-193.88606244 73.80174497 -193.87200128 80.610581 -193.84912109 87.41943359 C-193.82706024 93.98759611 -193.81543835 100.55572313 -193.81024551 107.12392426 C-193.80654379 109.63260404 -193.79931548 112.14128112 -193.78853989 114.64994049 C-193.77406927 118.15763584 -193.77202022 121.66513128 -193.77294922 125.17285156 C-193.76575867 126.21510391 -193.75856812 127.25735626 -193.75115967 128.33119202 C-193.753909 129.28749008 -193.75665833 130.24378815 -193.75949097 131.22906494 C-193.75764738 132.05867863 -193.75580379 132.88829231 -193.75390434 133.74304581 C-194.02425832 136.22247416 -194.75841257 137.85479969 -196 140 C-196.02332953 124.63198551 -196.04097944 109.26397184 -196.05181217 93.89594364 C-196.05697501 86.76078259 -196.06401748 79.62563252 -196.07543945 72.49047852 C-196.08644675 65.61110263 -196.09227617 58.73173819 -196.09487724 51.85235405 C-196.09673206 49.22118385 -196.10035373 46.59001431 -196.10573006 43.95884895 C-196.11293635 40.2877375 -196.11399112 36.61667397 -196.11352539 32.94555664 C-196.11712067 31.84576477 -196.12071594 30.7459729 -196.12442017 29.612854 C-196.12235817 28.12148674 -196.12235817 28.12148674 -196.12025452 26.59999084 C-196.12117631 25.73074006 -196.1220981 24.86148928 -196.12304783 23.96589756 C-196 22 -196 22 -195 21 C-193.21988955 20.89359911 -191.43554722 20.85756894 -189.65228271 20.84851074 C-188.49171356 20.84016708 -187.33114441 20.83182343 -186.13540649 20.82322693 C-184.85032196 20.81904251 -183.56523743 20.81485809 -182.24121094 20.81054688 C-180.88286073 20.80260843 -179.52451308 20.7942208 -178.16616821 20.78541565 C-175.23218272 20.76731472 -172.29820305 20.75231377 -169.36418915 20.73963928 C-164.71461916 20.71942791 -160.06511198 20.69176641 -155.41558838 20.66296387 C-145.52708858 20.60278004 -135.63855011 20.55112134 -125.75 20.5 C-115.11567202 20.44485483 -104.48136342 20.38800916 -93.84709382 20.32245111 C-89.23691407 20.2943039 -84.62674059 20.27063355 -80.01651907 20.25052643 C-77.12709581 20.23699699 -74.23770467 20.21959234 -71.34830856 20.20121574 C-69.39586669 20.18994021 -67.44339995 20.18325306 -65.49093628 20.17677307 C-54.92475241 20.10296186 -44.34724671 20.01049196 -34.125 17.125 C-32.93132812 16.79757812 -31.73765625 16.47015625 -30.5078125 16.1328125 C-23.70198926 14.04344502 -23.70198926 14.04344502 -18 10 C-16.66910576 9.65705771 -15.33552158 9.32445493 -14 9 C-10.95818136 7.09043357 -7.99517794 5.10849802 -5.04492188 3.0625 C-3.41077098 1.96725266 -1.70829423 0.97557507 0 0 Z " fill="#207CBC" transform="translate(599,478)"/>
<path d="M0 0 C0.33 0 0.66 0 1 0 C0.85470122 1.91670726 0.70872231 3.83336297 0.5625 5.75 C0.43205358 7.46443872 0.30198441 9.17890805 0.17486477 10.89359665 C0.05533248 12.33347059 -0.08586852 13.77166627 -0.24565792 15.20763016 C-1.3644575 26.11899588 -1.13218057 37.07217838 -1.11352539 48.02636719 C-1.11324298 50.35323078 -1.1134023 52.68009447 -1.1139679 55.00695801 C-1.11425378 61.29531092 -1.10839087 67.5836446 -1.10139394 73.87199306 C-1.09512556 80.45431355 -1.09455385 87.03663451 -1.09336853 93.61895752 C-1.09078413 104.65775891 -1.08437937 115.69655359 -1.07543945 126.73535156 C-1.06624532 138.09993454 -1.0591743 149.46451561 -1.05493164 160.82910156 C-1.05466892 161.53087984 -1.05440619 162.23265811 -1.05413551 162.95570239 C-1.05283037 166.47669559 -1.05156669 169.99768879 -1.05032361 173.518682 C-1.03997503 202.67912589 -1.0223029 231.83956285 -1 261 C-1.66 260.67 -2.32 260.34 -3 260 C-3.75128882 245.14477345 -4.14975103 230.33387282 -4.14526367 215.46069336 C-4.14826761 213.4240564 -4.15167289 211.38741999 -4.15544128 209.3507843 C-4.16415517 203.89629454 -4.16661384 198.44182053 -4.16725707 192.98732448 C-4.16797424 189.5636312 -4.17012086 186.13994177 -4.17275429 182.71624947 C-4.18196242 170.72806677 -4.18609446 158.7398951 -4.18530273 146.75170898 C-4.18470156 135.64481456 -4.19527298 124.53796864 -4.2110464 113.43108648 C-4.22418533 103.83120529 -4.22948406 94.23133985 -4.22884732 84.63144976 C-4.22859442 78.9256837 -4.2313302 73.21996097 -4.24202538 67.51420403 C-4.25181561 62.1467506 -4.25171199 56.77938101 -4.24450874 51.41192436 C-4.24347668 49.46188736 -4.24574183 47.51184482 -4.2518692 45.56181717 C-4.28192016 35.32160577 -3.99264854 25.18041867 -3.1098175 14.97438049 C-3.03228625 14.04946271 -2.95475499 13.12454492 -2.87487429 12.17159933 C-2.45645391 7.79122564 -1.98381797 4.00031119 0 0 Z " fill="#227EBF" transform="translate(303,375)"/>
<path d="M0 0 C2.11667033 -0.05565269 4.23326862 -0.10028345 6.35026842 -0.14124441 C8.80043442 -0.19315154 11.25028449 -0.26803259 13.69879252 -0.3720336 C16.55246324 -0.42179623 19.09611764 -0.42852652 21.8864575 0.16648722 C25.31558408 3.65830746 25.87137367 5.21620558 25.9489575 10.10398722 C23.01877266 27.28291403 14.65992511 43.64234703 3.8864575 57.16648722 C3.2264575 56.50648722 2.5664575 55.84648722 1.8864575 55.16648722 C2.2989575 54.63023722 2.7114575 54.09398722 3.1364575 53.54148722 C12.77940296 40.45463267 23.61755286 21.86194018 21.8864575 5.16648722 C18.09561738 4.29067561 14.55052817 4.01956881 10.66337401 3.97009134 C9.4075376 3.95194187 8.15170119 3.9337924 6.85780913 3.91509295 C5.4718522 3.89988317 4.08589379 3.88480891 2.69993407 3.86985636 C1.23295712 3.85074245 -0.23401519 3.83126977 -1.70098299 3.81146669 C-5.70089319 3.75888861 -9.70085399 3.71263866 -13.70085806 3.66784406 C-16.2357942 3.63899693 -18.77070372 3.60842417 -21.3056125 3.57727098 C-59.04009584 3.11414593 -96.77597655 2.86377688 -134.51256222 2.64907753 C-143.4547495 2.59809274 -152.39691615 2.54381763 -161.33908314 2.48940599 C-179.59721693 2.37837481 -197.85537046 2.27103274 -216.1135425 2.16648722 C-216.1135425 1.83648722 -216.1135425 1.50648722 -216.1135425 1.16648722 C-189.36418149 1.03524264 -162.61481659 0.90481652 -135.86544698 0.77533579 C-123.44220284 0.71518229 -111.01896006 0.65477193 -98.59572023 0.59373331 C-87.75381485 0.54046488 -76.91190714 0.48770239 -66.06999648 0.43552017 C-60.34188316 0.40793376 -54.61377122 0.38011258 -48.88566202 0.35168314 C-47.78612961 0.34626363 -46.6865972 0.34084413 -45.55374563 0.33526039 C-43.37641588 0.32446568 -41.19908698 0.3134962 -39.02175903 0.30234432 C-33.87225898 0.27651731 -28.72281802 0.25486716 -23.57326406 0.24361277 C-11.785456 0.21643749 -11.785456 0.21643749 0 0 Z " fill="#1066AF" transform="translate(619.113542497158,399.83351278305054)"/>
<path d="M0 0 C-2.58565361 7.03872372 -11.71512601 11.28112254 -18.10546875 14.625 C-30.30294075 20.03893737 -42.84405994 20.30199187 -55.96777344 20.31884766 C-57.64440382 20.32816484 -59.32102965 20.33833612 -60.99765015 20.34928894 C-65.51331483 20.37640143 -70.02894865 20.39168221 -74.54467297 20.40471697 C-79.27723383 20.42043028 -84.00973242 20.44719402 -88.74224854 20.4727478 C-97.68789866 20.51939122 -106.63356069 20.55620486 -115.57926965 20.58942068 C-125.7704447 20.62774453 -135.96155697 20.67712756 -146.15267897 20.72740483 C-167.10173953 20.83050977 -188.05083989 20.91983938 -209 21 C-205.39157455 18.59438304 -203.77479512 18.74965031 -199.48286438 18.7484436 C-198.81780402 18.74547346 -198.15274366 18.74250333 -197.46752995 18.73944318 C-195.23388149 18.73179117 -193.00049507 18.73830235 -190.7668457 18.74462891 C-189.16676658 18.74187928 -187.56668881 18.73819955 -185.96661377 18.73365784 C-182.51589936 18.7255362 -179.06524979 18.72337996 -175.61452675 18.72560501 C-170.14483485 18.72843922 -164.67527207 18.7140782 -159.20561218 18.69662476 C-143.6497088 18.64962031 -128.09381301 18.62568775 -112.5378418 18.61914062 C-103.94977295 18.61537352 -95.3618492 18.59720523 -86.77384251 18.56404626 C-81.35149245 18.54396248 -75.92952007 18.54139886 -70.50714839 18.55232644 C-67.10836949 18.55495937 -63.70980391 18.54080356 -60.31108093 18.52224541 C-58.75201387 18.51698392 -57.19290598 18.5183146 -55.63385582 18.52728081 C-36.74911008 18.62699356 -20.54953758 13.98664049 -5 3 C-4.16082031 2.15115234 -4.16082031 2.15115234 -3.3046875 1.28515625 C-2 0 -2 0 0 0 Z " fill="#0364B1" transform="translate(661,308)"/>
<path d="M0 0 C3 1 3 1 4.1328125 3.109375 C4.62394531 4.41648437 4.62394531 4.41648437 5.125 5.75 C5.62386719 7.04164063 5.62386719 7.04164063 6.1328125 8.359375 C10.75284406 22.42757921 8.92648748 39.5584222 2.375 52.625 C-5.08350442 65.36126675 -16.12605223 75.43748545 -30.5234375 79.3203125 C-41.24960337 81.41733819 -52.20040124 82.49733589 -62 77 C-58.23959633 75.74653211 -55.91562763 76.40948531 -52 77 C-41.78625937 77.74224973 -32.29185687 77.77189459 -23 73 C-21.71029297 72.34644531 -21.71029297 72.34644531 -20.39453125 71.6796875 C-9.08213438 65.41593976 -0.99158615 56.06143549 2.8125 43.625 C3.22557424 42.08786311 3.62290591 40.54635707 4 39 C4.17200928 38.38060547 4.34401855 37.76121094 4.52124023 37.12304688 C6.74431755 27.2648723 5.79406803 15.27233211 2 6 C1.4121875 4.205625 1.4121875 4.205625 0.8125 2.375 C0.544375 1.59125 0.27625 0.8075 0 0 Z " fill="#1870B1" transform="translate(831,256)"/>
<path d="M0 0 C0.83265381 0.00523682 1.66530762 0.01047363 2.52319336 0.01586914 C3.42231445 0.0190918 4.32143555 0.02231445 5.24780273 0.02563477 C6.66609375 0.03820312 6.66609375 0.03820312 8.11303711 0.05102539 C9.06243164 0.05553711 10.01182617 0.06004883 10.98999023 0.06469727 C13.34356776 0.07652429 15.69702188 0.09300514 18.05053711 0.11352539 C14.25890684 2.6412789 11.2417968 2.33795574 6.86303711 2.23852539 C6.11344727 2.22950195 5.36385742 2.22047852 4.59155273 2.21118164 C2.74441056 2.18765117 0.89743299 2.151781 -0.94946289 2.11352539 C-0.9476193 2.69220997 -0.94577572 3.27089455 -0.94387627 3.86711502 C-0.89971032 17.94685799 -0.8666127 32.02659057 -0.84583855 46.10638809 C-0.83552534 52.91527036 -0.82146417 59.72410639 -0.79858398 66.53295898 C-0.77652313 73.1011215 -0.76490124 79.66924852 -0.7597084 86.23744965 C-0.75600668 88.74612943 -0.74877837 91.25480651 -0.73800278 93.76346588 C-0.72353216 97.27116123 -0.72148311 100.77865667 -0.72241211 104.28637695 C-0.71522156 105.3286293 -0.70803101 106.37088165 -0.70062256 107.44471741 C-0.70337189 108.40101547 -0.70612122 109.35731354 -0.70895386 110.34259033 C-0.70711027 111.17220402 -0.70526669 112.0018177 -0.70336723 112.8565712 C-0.97372121 115.33599955 -1.70787546 116.96832508 -2.94946289 119.11352539 C-2.97279243 103.7455109 -2.99044233 88.37749723 -3.00127506 73.00946903 C-3.0064379 65.87430798 -3.01348037 58.73915791 -3.02490234 51.60400391 C-3.03590964 44.72462802 -3.04173906 37.84526358 -3.04434013 30.96587944 C-3.04619495 28.33470924 -3.04981662 25.7035397 -3.05519295 23.07237434 C-3.06239924 19.40126289 -3.06345401 15.73019936 -3.06298828 12.05908203 C-3.06658356 10.95929016 -3.07017883 9.85949829 -3.07388306 8.72637939 C-3.07182106 7.23501213 -3.07182106 7.23501213 -3.06971741 5.71351624 C-3.0706392 4.84426545 -3.07156099 3.97501467 -3.07251072 3.07942295 C-2.90619589 0.42226166 -2.6591604 0.15485405 0 0 Z " fill="#2D87C3" transform="translate(405.949462890625,498.886474609375)"/>
<path d="M0 0 C0.66 0.33 1.32 0.66 2 1 C1.82984375 1.54785156 1.6596875 2.09570312 1.484375 2.66015625 C0.63628737 5.43448546 -0.18478304 8.21582683 -1 11 C-1.32484375 12.10085938 -1.6496875 13.20171875 -1.984375 14.3359375 C-7.77547716 34.87207669 -12.68524322 58.80094463 -2.25 78.625 C-1.80140625 79.38039063 -1.3528125 80.13578125 -0.890625 80.9140625 C0.17233427 83.403625 -0.07457183 84.50585822 -1 87 C-11.35457873 74.63203096 -11.92733056 57.45218558 -11 42 C-9.54249473 27.54559095 -5.18135562 13.51068602 0 0 Z " fill="#1876B9" transform="translate(230,570)"/>
<path d="M0 0 C1.98 0 3.96 0 6 0 C9.55599774 10.66799322 -3.91417195 30.99331135 -8.8125 40.8125 C-10.1943102 43.54896465 -11.59470437 46.2755321 -13 49 C-13.44311523 49.86157715 -13.88623047 50.7231543 -14.34277344 51.61083984 C-15.7854995 54.41012232 -17.23507111 57.20574068 -18.6875 60 C-19.13907471 60.87245361 -19.59064941 61.74490723 -20.0559082 62.64379883 C-22.81506665 67.91763334 -25.76106776 73.00602857 -29 78 C-30.14941406 74.32177734 -30.14941406 74.32177734 -28.8046875 71.42578125 C-28.16789063 70.39839844 -27.53109375 69.37101562 -26.875 68.3125 C-18.08126001 53.61290504 -10.25695879 38.30804975 -3.375 22.625 C-2.77292725 21.26387085 -2.77292725 21.26387085 -2.15869141 19.87524414 C0.48311464 13.71159817 2.39154257 7.50729669 4 1 C2.68 0.67 1.36 0.34 0 0 Z " fill="#207AB8" transform="translate(777,356)"/>
<path d="M0 0 C-5.09942039 2.84560249 -10.20524131 5.67934375 -15.31445312 8.50732422 C-17.91842792 9.95466075 -20.51424301 11.41578873 -23.109375 12.87890625 C-67.31880435 37.61035404 -67.31880435 37.61035404 -78 37 C-75.35495122 34.35495122 -72.27069585 33.29496741 -68.875 31.875 C-62.53320833 29.16392872 -56.34726804 26.24506389 -50.20336914 23.11376953 C-46.6650191 21.31663433 -43.11358568 19.57243996 -39.5078125 17.9140625 C-29.61501301 13.3583589 -20.15831556 8.39940427 -10.8527832 2.72167969 C-10.01577881 2.22313477 -9.17877441 1.72458984 -8.31640625 1.2109375 C-7.57849854 0.76024902 -6.84059082 0.30956055 -6.08032227 -0.15478516 C-3.60129039 -1.16199186 -2.46953834 -0.91087529 0 0 Z " fill="#1E76B5" transform="translate(514,655)"/>
<path d="M0 0 C-2.64408154 2.64408154 -5.09137583 3.18732951 -8.6484375 4.35546875 C-9.32484787 4.57806366 -10.00125824 4.80065857 -10.69816589 5.02999878 C-12.92122809 5.75729486 -15.14766448 6.47340534 -17.375 7.1875 C-18.13287811 7.43233124 -18.89075623 7.67716248 -19.67160034 7.92941284 C-33.37565614 12.34348913 -47.16161478 16.12005963 -61.19580078 19.35205078 C-63.01057538 19.77137969 -64.82185504 20.20626531 -66.62841797 20.65966797 C-67.42006348 20.85318848 -68.21170898 21.04670898 -69.02734375 21.24609375 C-69.704021 21.41681396 -70.38069824 21.58753418 -71.07788086 21.76342773 C-73.29332529 22.03610215 -74.88355229 21.66103963 -77 21 C-76.01 21 -75.02 21 -74 21 C-74 20.34 -74 19.68 -74 19 C-72.75734375 18.76667969 -71.5146875 18.53335938 -70.234375 18.29296875 C-57.27759645 15.72608288 -44.73446734 12.26992934 -32.125 8.375 C-31.34314331 8.13357269 -30.56128662 7.89214539 -29.7557373 7.6434021 C-23.03004836 5.56012498 -16.31062258 3.46728876 -9.65234375 1.17578125 C-6.1823275 0.0586958 -3.6129619 -0.27792015 0 0 Z " fill="#1F7AB9" transform="translate(413,702)"/>
<path d="M0 0 C0.66 0.33 1.32 0.66 2 1 C2 1.66 2 2.32 2 3 C0.43041992 4.29345703 0.43041992 4.29345703 -1.76953125 5.7578125 C-2.56979736 6.29656006 -3.37006348 6.83530762 -4.19458008 7.39038086 C-5.05849365 7.96280518 -5.92240723 8.53522949 -6.8125 9.125 C-8.58422907 10.3150738 -10.3550696 11.50647153 -12.125 12.69921875 C-12.97835937 13.27333496 -13.83171875 13.84745117 -14.7109375 14.43896484 C-17.29872613 16.20371746 -19.81279165 18.05038465 -22.3125 19.9375 C-30.47793276 25.9739487 -39.22087658 31.2164296 -47.81445312 36.61474609 C-49.55797633 37.71983442 -51.28244717 38.85496478 -53 40 C-55.1875 39.625 -55.1875 39.625 -57 39 C-56.45400146 38.6596875 -55.90800293 38.319375 -55.34545898 37.96875 C-36.36600526 26.10338643 -17.70837671 13.709711 0 0 Z " fill="#1C7BBD" transform="translate(568,563)"/>
<path d="M0 0 C0.66 0 1.32 0 2 0 C2.03738281 0.95519531 2.07476563 1.91039062 2.11328125 2.89453125 C2.91733732 18.70763395 6.54548947 33.05039186 17.703125 44.96484375 C21.10209156 47.9765131 24.83949512 50.24972624 28.77734375 52.4921875 C31 54 31 54 32 57 C21.49384361 53.98081427 12.71570601 45.37218362 7.2734375 36.0390625 C3.19864455 28.21777745 3.19864455 28.21777745 2.4609375 23.6953125 C2.30882812 22.80585938 2.15671875 21.91640625 2 21 C1.34 20.67 0.68 20.34 0 20 C0 13.4 0 6.8 0 0 Z " fill="#237BB8" transform="translate(732,275)"/>
<path d="M0 0 C0.495 0.99 0.495 0.99 1 2 C-2.12290635 1.51421457 -4.99580359 1.0013988 -8 0 C-8 -0.66 -8 -1.32 -8 -2 C-11.91015628 -2.10041887 -15.81979251 -2.17218019 -19.73095703 -2.21972656 C-21.69981341 -2.2492475 -23.66831298 -2.30012677 -25.63671875 -2.3515625 C-37.24529983 -2.46941612 -46.41587235 -0.00217496 -56.2578125 6.14453125 C-57.12019531 6.56798828 -57.12019531 6.56798828 -58 7 C-58.66 6.67 -59.32 6.34 -60 6 C-43.95788591 -8.49768695 -18.79261554 -9.71900925 0 0 Z " fill="#1D7DBF" transform="translate(811,234)"/>
<path d="M0 0 C0 4.13077588 -2.03160459 6.68663961 -4.1875 10.0625 C-4.6323877 10.76568359 -5.07727539 11.46886719 -5.53564453 12.19335938 C-10.49490219 19.92782512 -15.86783275 27.35346773 -21.33007812 34.73779297 C-23.02771093 37.0375394 -24.70971089 39.34817062 -26.390625 41.66015625 C-27.46799207 43.12816071 -28.5460878 44.59563076 -29.625 46.0625 C-30.12177246 46.74763672 -30.61854492 47.43277344 -31.13037109 48.13867188 C-34.65619698 52.88539899 -34.65619698 52.88539899 -38 54 C-36.253274 49.95442195 -33.54382768 46.65148314 -30.875 43.1875 C-25.62691733 36.2798929 -20.58614134 29.24118384 -15.625 22.125 C-14.62702393 20.70030396 -14.62702393 20.70030396 -13.60888672 19.24682617 C-9.9098129 13.91832102 -6.45086184 8.53158239 -3.23974609 2.89404297 C-2 1 -2 1 0 0 Z " fill="#2079B8" transform="translate(743,439)"/>
<path d="M0 0 C1.21236328 0.01353516 1.21236328 0.01353516 2.44921875 0.02734375 C3.37154297 0.04474609 3.37154297 0.04474609 4.3125 0.0625 C0.90727152 1.98294217 -2.45560955 2.83892894 -6.25390625 3.71875 C-6.8880394 3.86654907 -7.52217255 4.01434814 -8.17552185 4.16662598 C-9.51725569 4.47823564 -10.8595622 4.78738842 -12.20239258 5.09423828 C-14.22030739 5.55570968 -16.23621792 6.02520378 -18.25195312 6.49609375 C-43.04106748 12.248378 -43.04106748 12.248378 -49.6875 11.0625 C-52.25 9.0625 -52.25 9.0625 -53.6875 7.0625 C-51.74668362 7.0625 -49.80548447 7.09478282 -47.8659668 7.16577148 C-38.7086795 7.38104462 -30.4143841 6.12993353 -21.5 4.125 C-20.19233151 3.84312588 -18.88438855 3.56252198 -17.57617188 3.28320312 C-2.25892101 -0.03273799 -2.25892101 -0.03273799 0 0 Z " fill="#1A78BC" transform="translate(359.6875,636.9375)"/>
<path d="M0 0 C1.5 1.265625 1.5 1.265625 3 3 C3 21.02405999 -8.06976035 40.27906087 -19 54 C-19.66 53.34 -20.32 52.68 -21 52 C-20.5875 51.46375 -20.175 50.9275 -19.75 50.375 C-9.09383316 35.91305929 -0.36593582 18.16372349 0 0 Z " fill="#1F7BBB" transform="translate(642,403)"/>
<path d="M0 0 C0.66 0.33 1.32 0.66 2 1 C-0.13900633 3.33285378 -2.16655353 4.7868759 -5 6.1875 C-6.0209375 6.70376953 -6.0209375 6.70376953 -7.0625 7.23046875 C-9 8 -9 8 -12 8 C-12 8.66 -12 9.32 -12 10 C-14.26298453 11.6366755 -16.51267112 13.14565511 -18.875 14.625 C-19.52597656 15.04523438 -20.17695313 15.46546875 -20.84765625 15.8984375 C-25.73161019 19 -25.73161019 19 -28 19 C-28.2475 19.639375 -28.495 20.27875 -28.75 20.9375 C-30.32987939 23.544301 -31.16780311 23.29195078 -34 24 C-35.10836423 25.88316159 -35.10836423 25.88316159 -36 28 C-38.43055209 31.15971772 -41.24015063 31.91382129 -45 33 C-40.73638673 27.73553854 -36.29022372 23.45361141 -30.9375 19.3125 C-30.17179687 18.71816162 -29.40609375 18.12382324 -28.6171875 17.51147461 C-22.50869078 12.89394624 -16.1372339 8.87423558 -9.5 5.0625 C-8.12896118 4.2732312 -8.12896118 4.2732312 -6.73022461 3.46801758 C-1.89557646 0.77670106 -1.89557646 0.77670106 0 0 Z " fill="#207EBE" transform="translate(398,246)"/>
<path d="M0 0 C-2.86249206 1.90832804 -4.45359564 2.49268021 -7.7265625 3.21875 C-8.66781982 3.42798096 -9.60907715 3.63721191 -10.57885742 3.8527832 C-11.58408447 4.06636475 -12.58931152 4.27994629 -13.625 4.5 C-15.17247925 4.83100708 -15.17247925 4.83100708 -16.7512207 5.16870117 C-29.47198451 7.81495908 -41.97239238 9.45182454 -55 9 C-55 8.67 -55 8.34 -55 8 C-54.06027344 7.90912109 -54.06027344 7.90912109 -53.1015625 7.81640625 C-51.87566406 7.69072266 -51.87566406 7.69072266 -50.625 7.5625 C-49.81289063 7.48128906 -49.00078125 7.40007813 -48.1640625 7.31640625 C-45.95727195 7.10909886 -45.95727195 7.10909886 -44 6 C-42.07757733 5.66320517 -40.14751125 5.36956803 -38.21484375 5.09765625 C-36.45817383 4.84532227 -36.45817383 4.84532227 -34.66601562 4.58789062 C-32.20768964 4.24148429 -29.74935647 3.89512895 -27.29101562 3.54882812 C-21.43551632 2.70775968 -15.66376312 1.82438291 -9.92431641 0.37719727 C-6.60207286 -0.27401642 -3.37346819 -0.12267157 0 0 Z " fill="#2A88C6" transform="translate(359,672)"/>
<path d="M0 0 C0.495 1.485 0.495 1.485 1 3 C-5.6700424 10.78171614 -14.85337778 13.44113576 -24.375 16.375 C-25.69576538 16.78770142 -25.69576538 16.78770142 -27.04321289 17.20874023 C-27.88231201 17.45696533 -28.72141113 17.70519043 -29.5859375 17.9609375 C-30.71588135 18.29810791 -30.71588135 18.29810791 -31.86865234 18.64208984 C-34.2303828 19.03868742 -35.74289546 18.73958367 -38 18 C-37.01 18 -36.02 18 -35 18 C-35 17.34 -35 16.68 -35 16 C-34.24904053 15.78907715 -33.49808105 15.5781543 -32.72436523 15.36083984 C-29.2897001 14.38450178 -25.86386338 13.38006659 -22.4375 12.375 C-20.66536133 11.87806641 -20.66536133 11.87806641 -18.85742188 11.37109375 C-11.79457675 9.27400248 -7.26315453 7.15242898 -2 2 C-1.34 2 -0.68 2 0 2 C0 1.34 0 0.68 0 0 Z " fill="#207DBD" transform="translate(402,618)"/>
<path d="M0 0 C0.66 0.33 1.32 0.66 2 1 C1.47792969 1.63164062 0.95585937 2.26328125 0.41796875 2.9140625 C-12.4845757 18.44357664 -12.4845757 18.44357664 -24 35 C-24.66 34.67 -25.32 34.34 -26 34 C-24.43471628 28.87815389 -21.25397528 25.34164462 -17.875 21.3125 C-16.69757633 19.88830213 -15.52049256 18.46382318 -14.34375 17.0390625 C-13.48523438 16.00507324 -13.48523438 16.00507324 -12.609375 14.95019531 C-9.88330043 11.64681491 -7.23735404 8.28144693 -4.5859375 4.91796875 C-3.1394011 3.16858606 -1.63588833 1.57144424 0 0 Z " fill="#1B74B5" transform="translate(257,487)"/>
<path d="M0 0 C-7.89253226 4.27773481 -16.70285121 4.28603139 -25.4765625 4.1953125 C-26.52782318 4.1924826 -27.57908386 4.18965271 -28.66220093 4.18673706 C-31.98325524 4.17564143 -35.30402873 4.15055706 -38.625 4.125 C-40.89192316 4.11495646 -43.15885059 4.10583303 -45.42578125 4.09765625 C-50.95061485 4.07573701 -56.47528735 4.04236699 -62 4 C-62 3.67 -62 3.34 -62 3 C-60.92741943 2.98018066 -59.85483887 2.96036133 -58.74975586 2.93994141 C-54.69584184 2.86274474 -50.64223486 2.77422423 -46.58862305 2.68261719 C-44.84812568 2.64479074 -43.10756234 2.6098658 -41.36694336 2.578125 C-31.50052778 2.39609831 -21.86998472 1.94380161 -12.11132812 0.42773438 C-8.0222737 -0.13441435 -4.11934552 -0.14453844 0 0 Z " fill="#116EB4" transform="translate(328,724)"/>
<path d="M0 0 C0 3.51734372 -0.58914014 4.12218252 -2.7109375 6.80859375 C-3.29190186 7.55052979 -3.87286621 8.29246582 -4.47143555 9.05688477 C-5.09961182 9.84248779 -5.72778809 10.62809082 -6.375 11.4375 C-7.00897705 12.23921631 -7.6429541 13.04093262 -8.29614258 13.86694336 C-10.18855952 16.25187119 -12.09260027 18.6270465 -14 21 C-14.52674316 21.66032227 -15.05348633 22.32064453 -15.59619141 23.00097656 C-23.44182217 32.81394072 -23.44182217 32.81394072 -27 34 C-25.42553664 30.37704129 -23.19758928 27.73054033 -20.625 24.75 C-15.8149295 19.11716609 -11.37635915 13.24885623 -7.02392578 7.25683594 C-6.54294434 6.60231445 -6.06196289 5.94779297 -5.56640625 5.2734375 C-5.14302979 4.68997559 -4.71965332 4.10651367 -4.28344727 3.50537109 C-3 2 -3 2 0 0 Z " fill="#1B76B7" transform="translate(694,437)"/>
<path d="M0 0 C-8.24710077 5.68297975 -16.62092523 11.09974655 -25.25 16.1875 C-26.48230347 16.92770386 -26.48230347 16.92770386 -27.73950195 17.68286133 C-28.51124756 18.13169678 -29.28299316 18.58053223 -30.078125 19.04296875 C-30.76293945 19.44539795 -31.44775391 19.84782715 -32.15332031 20.26245117 C-34 21 -34 21 -37 20 C-36.30519531 19.57332031 -35.61039063 19.14664063 -34.89453125 18.70703125 C-33.87746094 18.08183594 -32.86039063 17.45664062 -31.8125 16.8125 C-31.25385254 16.470979 -30.69520508 16.12945801 -30.11962891 15.77758789 C-26.24398784 13.40217841 -22.39839998 10.98433474 -18.56640625 8.5390625 C-17.62756592 7.94504639 -16.68872559 7.35103027 -15.72143555 6.73901367 C-13.83360298 5.54420138 -11.95086357 4.34130113 -10.07348633 3.13012695 C-9.20103271 2.5805835 -8.3285791 2.03104004 -7.4296875 1.46484375 C-6.64835449 0.965896 -5.86702148 0.46694824 -5.06201172 -0.04711914 C-3 -1 -3 -1 0 0 Z " fill="#247BB7" transform="translate(551,632)"/>
<path d="M0 0 C2.45446111 1.6107401 3.79200722 3.06863408 4.44140625 5.9765625 C4.97762844 16.87398111 1.42851473 28.71445582 -2 39 C-2.66 39 -3.32 39 -4 39 C-3.48100226 35.56915181 -2.83524773 32.20064549 -2.02734375 28.828125 C1.46000217 14.51939588 1.46000217 14.51939588 0 0 Z " fill="#1E76B5" transform="translate(689,231)"/>
<path d="M0 0 C0.66 0.33 1.32 0.66 2 1 C1.82984375 1.54785156 1.6596875 2.09570312 1.484375 2.66015625 C0.63628737 5.43448546 -0.18478304 8.21582683 -1 11 C-1.32484375 12.10085938 -1.6496875 13.20171875 -1.984375 14.3359375 C-4.83891664 24.45858133 -6.52219183 34.59936524 -8 45 C-8.33 45 -8.66 45 -9 45 C-9.58112806 28.72841424 -5.80297327 15.02928328 0 0 Z " fill="#2180C0" transform="translate(230,570)"/>
<path d="M0 0 C0.33 0 0.66 0 1 0 C0.5067666 5.4116735 -0.91854038 9.54103752 -3.5625 14.3125 C-3.91602539 14.96114014 -4.26955078 15.60978027 -4.63378906 16.27807617 C-12.89626898 31.0296346 -12.89626898 31.0296346 -20 34 C-18.55163142 30.75214319 -16.71363433 28.41473872 -14.375 25.75 C-8.97517227 19.14802084 -5.60544918 11.66792713 -2 4 C-1.33839498 2.66414783 -0.67483393 1.32921834 0 0 Z " fill="#1C7ABA" transform="translate(684,271)"/>
<path d="M0 0 C0.66 0 1.32 0 2 0 C-0.59569355 7.06605467 -9.84517611 11.42073009 -16.31640625 14.66015625 C-21.22185205 16.76599844 -25.69848337 18.25044831 -31 19 C-30.34 18.67 -29.68 18.34 -29 18 C-29 17.34 -29 16.68 -29 16 C-28.14019531 15.74347656 -27.28039062 15.48695313 -26.39453125 15.22265625 C-16.41297245 11.98980678 -7.53247744 7.53247744 0 0 Z " fill="#1B78B8" transform="translate(659,308)"/>
<path d="M0 0 C3 1 3 1 4.1875 3 C6.41491705 11.22430912 4.74609289 16.73117383 0.7265625 24.1796875 C-1.55033724 27.89896717 -3.91510905 30.91510905 -7 34 C-7.66 34 -8.32 34 -9 34 C-7.06049511 29.80097192 -4.37282256 26.25893262 -1.65625 22.53515625 C1.45519795 17.77258615 2.27789492 14.55132709 1.6875 8.875 C1.58824219 7.84117187 1.48898437 6.80734375 1.38671875 5.7421875 C1.07235731 2.91598607 1.07235731 2.91598607 0 0 Z " fill="#1E7AB9" transform="translate(279,475)"/>
<path d="M0 0 C1 3 1 3 0.19897461 5.20141602 C-0.22891357 6.04373779 -0.65680176 6.88605957 -1.09765625 7.75390625 C-1.57009766 8.69169922 -2.04253906 9.62949219 -2.52929688 10.59570312 C-3.03525391 11.57474609 -3.54121094 12.55378906 -4.0625 13.5625 C-4.54138672 14.51447266 -5.02027344 15.46644531 -5.51367188 16.44726562 C-14.73317751 34.57772584 -14.73317751 34.57772584 -19 36 C-17.67245951 32.5194288 -16.14839565 29.27959901 -14.35546875 26.015625 C-13.58686523 24.61183594 -13.58686523 24.61183594 -12.80273438 23.1796875 C-12.26970703 22.21289062 -11.73667969 21.24609375 -11.1875 20.25 C-10.40536133 18.82300781 -10.40536133 18.82300781 -9.60742188 17.3671875 C-6.42519639 11.56687637 -3.21912859 5.77990099 0 0 Z " fill="#2078B7" transform="translate(730,375)"/>
<path d="M0 0 C0 0.66 0 1.32 0 2 C-2.57568038 3.67887256 -5.14343263 5.23254787 -7.8125 6.75 C-8.96987671 7.41672729 -8.96987671 7.41672729 -10.15063477 8.09692383 C-11.70465505 8.98921761 -13.26087846 9.87768595 -14.81933594 10.76220703 C-16.72089936 11.84157633 -18.61514343 12.9324989 -20.5078125 14.02734375 C-25.99130201 17.13465447 -25.99130201 17.13465447 -28 18 C-28.66 17.67 -29.32 17.34 -30 17 C-27.46902324 14.14610365 -24.62237699 12.50095208 -21.30859375 10.64453125 C-20.19935547 10.02255859 -19.09011719 9.40058594 -17.94726562 8.75976562 C-17.37145752 8.44048096 -16.79564941 8.12119629 -16.20239258 7.79223633 C-14.43627241 6.81181853 -12.67594532 5.82155671 -10.91601562 4.83007812 C-2.25813836 0 -2.25813836 0 0 0 Z " fill="#2380BE" transform="translate(498,611)"/>
<path d="M0 0 C0.33 0.66 0.66 1.32 1 2 C0.29296875 3.734375 0.29296875 3.734375 -0.8125 5.75 C-2.57609498 9.11411783 -3.88499983 12.3576661 -5 16 C-5.47703161 17.41738703 -5.956403 18.83398771 -6.4375 20.25 C-8.06834438 25.13421252 -9.54604217 30.06066807 -11 35 C-11.33 35 -11.66 35 -12 35 C-12.43195001 28.75789884 -10.92842731 23.90210892 -8.8125 18.0625 C-8.52052734 17.20720703 -8.22855469 16.35191406 -7.92773438 15.47070312 C-5.92404373 9.82158821 -3.39424996 4.93811131 0 0 Z " fill="#227AB8" transform="translate(319,325)"/>
<path d="M0 0 C1 3 1 3 -0.03222656 5.1730957 C-0.56299805 5.99898193 -1.09376953 6.82486816 -1.640625 7.67578125 C-2.21683594 8.58650391 -2.79304687 9.49722656 -3.38671875 10.43554688 C-4.00160156 11.38494141 -4.61648437 12.33433594 -5.25 13.3125 C-10.5082993 21.44101323 -10.5082993 21.44101323 -15 30 C-15.83484985 27.63772813 -16.1488223 26.41537048 -15.29077148 24.02050781 C-14.90477783 23.33827148 -14.51878418 22.65603516 -14.12109375 21.953125 C-13.48010742 20.8084375 -13.48010742 20.8084375 -12.82617188 19.640625 C-12.36791016 18.85171875 -11.90964844 18.0628125 -11.4375 17.25 C-11.00630859 16.4765625 -10.57511719 15.703125 -10.13085938 14.90625 C-7.1308074 9.62403146 -3.75535042 4.77165797 0 0 Z " fill="#1C78B8" transform="translate(254,528)"/>
<path d="M0 0 C-4.22060663 2.23838017 -8.52243173 3.36030008 -13.125 4.5625 C-14.39790894 4.89737427 -14.39790894 4.89737427 -15.6965332 5.23901367 C-21.47556879 6.71600745 -27.02785974 7.70628818 -33 8 C-30.31899438 6.21266292 -28.78169787 5.53002276 -25.76171875 4.74609375 C-24.94123047 4.53146484 -24.12074219 4.31683594 -23.27539062 4.09570312 C-22.42138672 3.87849609 -21.56738281 3.66128906 -20.6875 3.4375 C-19.84509766 3.21642578 -19.00269531 2.99535156 -18.13476562 2.76757812 C-12.09298938 1.203991 -6.28168896 -0.18475556 0 0 Z " fill="#2884C2" transform="translate(450,231)"/>
<path d="M0 0 C0.33 0 0.66 0 1 0 C0.19964461 11.35240938 -0.89645505 22.67380573 -2 34 C-2.33 34 -2.66 34 -3 34 C-3.02948491 30.85418698 -3.04695916 27.70841037 -3.0625 24.5625 C-3.07506836 23.24475586 -3.07506836 23.24475586 -3.08789062 21.90039062 C-3.14472198 6.4990921 -3.14472198 6.4990921 0 0 Z " fill="#2172AD" transform="translate(303,375)"/>
<path d="M0 0 C3 1 3 1 4.1328125 3.109375 C4.46023438 3.98078125 4.78765625 4.8521875 5.125 5.75 C5.45757813 6.61109375 5.79015625 7.4721875 6.1328125 8.359375 C8.06610863 14.2463488 8.12206723 19.66791073 8.0625 25.8125 C8.05798828 26.69615234 8.05347656 27.57980469 8.04882812 28.49023438 C8.03709866 30.66018559 8.01916495 32.83010172 8 35 C7.67 35 7.34 35 7 35 C6.96261719 33.80503906 6.92523437 32.61007812 6.88671875 31.37890625 C6.45948786 20.27090321 5.105776 11.96841981 0 2 C0 1.34 0 0.68 0 0 Z " fill="#2E85BE" transform="translate(831,256)"/>
<path d="M0 0 C0.66 0 1.32 0 2 0 C0.40907948 4.13639336 -2.60474918 7.23213248 -6 10 C-6.66 10 -7.32 10 -8 10 C-8 10.66 -8 11.32 -8 12 C-10.8125 14.6875 -10.8125 14.6875 -14 17 C-14.99 16.67 -15.98 16.34 -17 16 C-16.52054932 15.55084229 -16.04109863 15.10168457 -15.54711914 14.63891602 C-13.38541794 12.6136163 -11.22395592 10.58806149 -9.0625 8.5625 C-7.93038086 7.50192383 -7.93038086 7.50192383 -6.77539062 6.41992188 C-6.05673828 5.74638672 -5.33808594 5.07285156 -4.59765625 4.37890625 C-3.93258057 3.7557251 -3.26750488 3.13254395 -2.58227539 2.49047852 C-1.71180457 1.6705087 -0.8455974 0.8455974 0 0 Z " fill="#1C76B7" transform="translate(649,552)"/>
<path d="M0 0 C0 0.33 0 0.66 0 1 C-23.78877436 4.58165209 -23.78877436 4.58165209 -34 4 C-34 3.67 -34 3.34 -34 3 C-33.06027344 2.90912109 -33.06027344 2.90912109 -32.1015625 2.81640625 C-30.87566406 2.69072266 -30.87566406 2.69072266 -29.625 2.5625 C-28.81289063 2.48128906 -28.00078125 2.40007813 -27.1640625 2.31640625 C-24.95727195 2.10909886 -24.95727195 2.10909886 -23 1 C-20.24543308 0.76464143 -17.50945676 0.57895114 -14.75 0.4375 C-13.62271484 0.37272461 -13.62271484 0.37272461 -12.47265625 0.30664062 C-8.30973102 0.07778871 -4.17091512 -0.04649109 0 0 Z " fill="#116DB2" transform="translate(338,677)"/>
<path d="M0 0 C-0.33 0.66 -0.66 1.32 -1 2 C-1.7425 1.87625 -2.485 1.7525 -3.25 1.625 C-4.1575 1.74875 -5.065 1.8725 -6 2 C-8.14749996 4.76238866 -8.14749996 4.76238866 -10 8 C-12 10.4375 -12 10.4375 -14 12 C-16.125 11.59765625 -16.125 11.59765625 -18 11 C-16.21135158 9.18443212 -14.41928379 7.37248378 -12.625 5.5625 C-12.11710937 5.04623047 -11.60921875 4.52996094 -11.0859375 3.99804688 C-6.96387335 -0.15113611 -5.72383102 -1.35564419 0 0 Z " fill="#2682C0" transform="translate(279,471)"/>
<path d="M0 0 C-3.80283823 2.10938683 -7.87395111 3.37568554 -12 4.6875 C-13.06734375 5.04424805 -13.06734375 5.04424805 -14.15625 5.40820312 C-17.87634409 6.59155395 -20.27904269 7.17566198 -24 6 C-19.71388332 3.71931406 -15.53702451 2.09926843 -10.875 0.75 C-9.67617188 0.39421875 -8.47734375 0.0384375 -7.2421875 -0.328125 C-4.24479247 -0.94927192 -2.79832636 -1.08591769 0 0 Z " fill="#207CBD" transform="translate(388,664)"/>
<path d="M0 0 C0 0.66 0 1.32 0 2 C-2.93425371 3.17495143 -5.87289513 4.33850852 -8.8125 5.5 C-9.64587891 5.83386719 -10.47925781 6.16773438 -11.33789062 6.51171875 C-12.14033203 6.82753906 -12.94277344 7.14335938 -13.76953125 7.46875 C-14.50792236 7.76201172 -15.24631348 8.05527344 -16.00708008 8.35742188 C-18 9 -18 9 -21 9 C-21 8.34 -21 7.68 -21 7 C-18.06574629 5.82504857 -15.12710487 4.66149148 -12.1875 3.5 C-11.35412109 3.16613281 -10.52074219 2.83226562 -9.66210938 2.48828125 C-8.85966797 2.17246094 -8.05722656 1.85664062 -7.23046875 1.53125 C-6.49207764 1.23798828 -5.75368652 0.94472656 -4.99291992 0.64257812 C-3 0 -3 0 0 0 Z " fill="#247DBA" transform="translate(434,693)"/>
<path d="M0 0 C0.33 0.99 0.66 1.98 1 3 C-0.07421875 4.9453125 -0.07421875 4.9453125 -1.6875 7.125 C-4.79348608 11.53419702 -6.99358993 16.00757966 -9 21 C-9.66 21 -10.32 21 -11 21 C-10.57821296 12.98604615 -5.100376 5.88504923 0 0 Z " fill="#1D78B8" transform="translate(418,348)"/>
<path d="M0 0 C0 3 0 3 -1.20703125 4.4296875 C-2.00173828 5.14511719 -2.00173828 5.14511719 -2.8125 5.875 C-5.45502857 8.37485684 -7.19701226 10.82330731 -9 14 C-10.6875 15.8125 -10.6875 15.8125 -12 17 C-12.66 16.67 -13.32 16.34 -14 16 C-9.90441138 9.7010096 -5.95185968 4.61572792 0 0 Z " fill="#1C79BB" transform="translate(662,477)"/>
<path d="M0 0 C0.66 0.33 1.32 0.66 2 1 C-0.44542886 3.79829275 -3.0112156 5.15306136 -6.375 6.6875 C-7.77878906 7.34298828 -7.77878906 7.34298828 -9.2109375 8.01171875 C-12.02108654 9.00747184 -14.0474406 9.19862672 -17 9 C-17.33 9.66 -17.66 10.32 -18 11 C-18.66 10.34 -19.32 9.68 -20 9 C-16.71411543 7.46643899 -13.42046261 5.95035562 -10.125 4.4375 C-9.18785156 3.99986328 -8.25070312 3.56222656 -7.28515625 3.11132812 C-6.38925781 2.70205078 -5.49335938 2.29277344 -4.5703125 1.87109375 C-3.74289551 1.48880615 -2.91547852 1.10651855 -2.06298828 0.71264648 C-1.38220215 0.47747314 -0.70141602 0.2422998 0 0 Z " fill="#2580BF" transform="translate(439,641)"/>
<path d="M0 0 C0 4.53699704 -2.49311668 7.43094849 -4.875 11.1875 C-5.33519531 11.93708984 -5.79539062 12.68667969 -6.26953125 13.45898438 C-6.71425781 14.16732422 -7.15898437 14.87566406 -7.6171875 15.60546875 C-8.02565918 16.25668701 -8.43413086 16.90790527 -8.85498047 17.57885742 C-9.23283691 18.04783447 -9.61069336 18.51681152 -10 19 C-10.66 19 -11.32 19 -12 19 C-10.7020192 14.63465164 -9.02170659 11.07895822 -6.5625 7.25 C-5.96566406 6.30640625 -5.36882812 5.3628125 -4.75390625 4.390625 C-3 2 -3 2 0 0 Z " fill="#2078B7" transform="translate(332,304)"/>
<path d="M0 0 C0.33 0.99 0.66 1.98 1 3 C0.36191406 3.69867188 -0.27617188 4.39734375 -0.93359375 5.1171875 C-1.75988281 6.02726562 -2.58617187 6.93734375 -3.4375 7.875 C-4.67306641 9.23238281 -4.67306641 9.23238281 -5.93359375 10.6171875 C-8.00907942 12.81137927 -8.00907942 12.81137927 -9 15 C-9.66 15 -10.32 15 -11 15 C-11.33 15.99 -11.66 16.98 -12 18 C-12.33 17.01 -12.66 16.02 -13 15 C-12.02783203 13.39013672 -12.02783203 13.39013672 -10.5078125 11.6796875 C-9.96769531 11.06222656 -9.42757812 10.44476562 -8.87109375 9.80859375 C-8.00677734 8.85146484 -8.00677734 8.85146484 -7.125 7.875 C-6.27228516 6.90626953 -6.27228516 6.90626953 -5.40234375 5.91796875 C-1.52594866 1.52594866 -1.52594866 1.52594866 0 0 Z " fill="#237EBD" transform="translate(694,505)"/>
<path d="M0 0 C0.66 0.33 1.32 0.66 2 1 C0.60919892 2.58775549 -0.78788404 4.17000939 -2.1875 5.75 C-2.96480469 6.63171875 -3.74210938 7.5134375 -4.54296875 8.421875 C-6.88455246 10.87886268 -9.30158265 12.94862766 -12 15 C-12.66 14.67 -13.32 14.34 -14 14 C-9.72706118 8.76564995 -5.18419194 4.32893185 0 0 Z " fill="#1F7EBE" transform="translate(601,536)"/>
<path d="M0 0 C6.91663627 1.09890483 13.42736799 2.56569185 20 5 C20 5.33 20 5.66 20 6 C13.7945858 5.51679152 8.00054754 4.66681876 2 3 C2 2.34 2 1.68 2 1 C1.34 0.67 0.68 0.34 0 0 Z " fill="#1C73B2" transform="translate(756,350)"/>
<path d="M0 0 C0.66 0.33 1.32 0.66 2 1 C-0.60841185 3.93446333 -3.63806602 5.75591171 -7 7.75 C-8.051875 8.38421875 -9.10375 9.0184375 -10.1875 9.671875 C-13 11 -13 11 -16 10 C-15.09636719 9.44570313 -14.19273437 8.89140625 -13.26171875 8.3203125 C-12.07029421 7.58857144 -10.87888897 6.85679896 -9.6875 6.125 C-9.09259766 5.76019531 -8.49769531 5.39539063 -7.88476562 5.01953125 C-5.22637701 3.38588461 -2.59656263 1.73104176 0 0 Z " fill="#1D73B2" transform="translate(530,642)"/>
<path d="M0 0 C5.2584002 0.67415387 10.02638346 2.24265549 15 4 C15 4.33 15 4.66 15 5 C9.80790596 5.21192221 5.873261 4.5912689 1 3 C1 3.66 1 4.32 1 5 C0.34 5 -0.32 5 -1 5 C-0.67 3.35 -0.34 1.7 0 0 Z " fill="#237DBA" transform="translate(741,345)"/>
<path d="M0 0 C-3.01802003 2.48291009 -5.89683437 3.91340355 -9.5625 5.25 C-10.51253906 5.60578125 -11.46257813 5.9615625 -12.44140625 6.328125 C-15 7 -15 7 -18 6 C-17.34 6 -16.68 6 -16 6 C-16 5.34 -16 4.68 -16 4 C-5.62642369 -0.59225513 -5.62642369 -0.59225513 0 0 Z " fill="#1E7DBD" transform="translate(646,320)"/>
<path d="M0 0 C0.33 0.66 0.66 1.32 1 2 C-2.75 6.875 -2.75 6.875 -5 8 C-6.0064275 9.66279327 -7.00585407 11.32983484 -8 13 C-9.6875 14.8125 -9.6875 14.8125 -11 16 C-11.66 15.67 -12.32 15.34 -13 15 C-4.738041 4.44191344 -4.738041 4.44191344 0 0 Z " fill="#2780BD" transform="translate(348,283)"/>
<path d="M0 0 C-1.50799304 3.01598607 -3.67733534 3.13739043 -6.8125 4.1875 C-8.39998047 4.73470703 -8.39998047 4.73470703 -10.01953125 5.29296875 C-12.91724451 5.98036862 -14.26601422 6.03931179 -17 5 C-3.95734003 -1.97867001 -3.95734003 -1.97867001 0 0 Z " fill="#1B7CBF" transform="translate(452,329)"/>
<path d="M0 0 C-2.94924939 1.62106548 -5.63806994 2.48443268 -8.9375 3.125 C-10.18853516 3.37636719 -10.18853516 3.37636719 -11.46484375 3.6328125 C-14.01458019 4.00211177 -16.42759067 4.06442528 -19 4 C-17 1 -17 1 -14.5625 0.3125 C-9.70232229 -0.11383138 -4.87526268 -0.0780736 0 0 Z " fill="#2182C2" transform="translate(344,642)"/>
<path d="M0 0 C0.66 0.33 1.32 0.66 2 1 C-1.02889253 4.80775061 -3.85890712 8.34545328 -8 11 C-9.32 10.67 -10.64 10.34 -12 10 C-8.04 6.7 -4.08 3.4 0 0 Z " fill="#2081C3" transform="translate(582,552)"/>
<path d="M0 0 C8.22689076 6.72478992 8.22689076 6.72478992 11 11 C10.67 11.99 10.34 12.98 10 14 C8.32401988 12.23722805 6.65940764 10.46575711 5 8.6875 C4.52304687 8.18798828 4.04609375 7.68847656 3.5546875 7.17382812 C0 3.33984375 0 3.33984375 0 0 Z " fill="#1E7ABB" transform="translate(820,241)"/>
<path d="M0 0 C3.2826932 1.49076434 5.93077441 3.38620321 8.75 5.625 C9.94882813 6.57246094 9.94882813 6.57246094 11.171875 7.5390625 C11.77515625 8.02117188 12.3784375 8.50328125 13 9 C12.01 9.33 11.02 9.66 10 10 C7.7734375 8.671875 7.7734375 8.671875 5.375 6.75 C4.57835937 6.12609375 3.78171875 5.5021875 2.9609375 4.859375 C1 3 1 3 0 0 Z " fill="#1F7DBE" transform="translate(232,659)"/>
<path d="M0 0 C-5.445 4.455 -5.445 4.455 -11 9 C-11.66 8.67 -12.32 8.34 -13 8 C-12.195625 7.236875 -11.39125 6.47375 -10.5625 5.6875 C-7.83200976 3.20569102 -7.83200976 3.20569102 -7 0 C-4.05610218 -1.17755913 -3.10046087 -1.03348696 0 0 Z " fill="#1F7CBC" transform="translate(607,592)"/>
<path d="M0 0 C6.6 0 13.2 0 20 0 C16.20836973 2.52775351 13.19125969 2.22443035 8.8125 2.125 C8.06291016 2.11597656 7.31332031 2.10695313 6.54101562 2.09765625 C4.69387346 2.07412578 2.84689588 2.03825561 1 2 C1 2.99 1 3.98 1 5 C0.34 5 -0.32 5 -1 5 C-0.67 3.35 -0.34 1.7 0 0 Z " fill="#1E7EBE" transform="translate(404,499)"/>
<path d="M0 0 C6.87742809 0.44370504 12.85198614 1.76741335 19 5 C19.33 5.66 19.66 6.32 20 7 C16.87709365 6.51421457 14.00419641 6.0013988 11 5 C11 4.34 11 3.68 11 3 C7.37 2.34 3.74 1.68 0 1 C0 0.67 0 0.34 0 0 Z " fill="#348EC8" transform="translate(792,229)"/>
<path d="M0 0 C-2.76854598 2.14909962 -5.57834526 4.01778828 -8.625 5.75 C-9.40101563 6.19859375 -10.17703125 6.6471875 -10.9765625 7.109375 C-11.97816406 7.55023437 -11.97816406 7.55023437 -13 8 C-13.66 7.67 -14.32 7.34 -15 7 C-11.19676155 2.52560182 -5.96922975 -0.723543 0 0 Z " fill="#1B76B9" transform="translate(483,621)"/>
<path d="M0 0 C0.33 1.32 0.66 2.64 1 4 C1.66 4 2.32 4 3 4 C3.99 7.3 4.98 10.6 6 14 C5.34 14.66 4.68 15.32 4 16 C3.49384702 14.73160474 2.99530901 13.46016898 2.5 12.1875 C2.2215625 11.47980469 1.943125 10.77210938 1.65625 10.04296875 C1 8 1 8 1 5 C0.34 4.67 -0.32 4.34 -1 4 C-0.67 2.68 -0.34 1.36 0 0 Z " fill="#2883C0" transform="translate(733,291)"/>
<path d="M0 0 C0 3.41761705 -0.75938546 5.82954062 -2 9 C-2.99 9.495 -2.99 9.495 -4 10 C-4 10.99 -4 11.98 -4 13 C-4.66 13 -5.32 13 -6 13 C-5.53428232 8.24967963 -4.85175998 4.87839357 -2 1 C-1.34 0.67 -0.68 0.34 0 0 Z " fill="#1977BA" transform="translate(742,251)"/>
<path d="M0 0 C0.99 0.33 1.98 0.66 3 1 C1.04594482 2.50587739 -0.91281284 4.00478644 -2.875 5.5 C-3.43058594 5.92925781 -3.98617187 6.35851562 -4.55859375 6.80078125 C-8.7734375 10 -8.7734375 10 -11 10 C-9.75330996 6.25992989 -8.31486492 5.48752843 -5.125 3.25 C-4.24070312 2.61578125 -3.35640625 1.9815625 -2.4453125 1.328125 C-1.23488281 0.67070313 -1.23488281 0.67070313 0 0 Z " fill="#2178B5" transform="translate(591,601)"/>
<path d="M0 0 C2.94897721 2.74559948 5.26205705 5.34117274 7 9 C6.57421875 11.15625 6.57421875 11.15625 6 13 C2.57546571 8.60957142 0.41778991 5.7097955 0 0 Z " fill="#1776B6" transform="translate(223,644)"/>
<path d="M0 0 C-1.28913487 0.67154933 -2.58140204 1.33708859 -3.875 2 C-4.59429687 2.37125 -5.31359375 2.7425 -6.0546875 3.125 C-8 4 -8 4 -10 4 C-10.33 4.99 -10.66 5.98 -11 7 C-11.99 6.34 -12.98 5.68 -14 5 C-13.34 5 -12.68 5 -12 5 C-12 4.34 -12 3.68 -12 3 C-10.75823305 2.29773859 -9.50614401 1.61370891 -8.25 0.9375 C-7.20585937 0.36322266 -7.20585937 0.36322266 -6.140625 -0.22265625 C-3.63859372 -1.1312406 -2.4667645 -0.88336837 0 0 Z " fill="#1976BA" transform="translate(458,635)"/>
<path d="M0 0 C0.99 0.33 1.98 0.66 3 1 C2.01 1.33 1.02 1.66 0 2 C-0.33 2.99 -0.66 3.98 -1 5 C-2.64333504 6.03789581 -4.31243867 7.03567924 -6 8 C-7.75149165 9.58245275 -7.75149165 9.58245275 -9 11 C-9.66 10.67 -10.32 10.34 -11 10 C-10.0479279 8.99403703 -9.08812654 7.99538437 -8.125 7 C-7.32449219 6.1646875 -7.32449219 6.1646875 -6.5078125 5.3125 C-5 4 -5 4 -3 4 C-3 3.34 -3 2.68 -3 2 C-2.01 1.34 -1.02 0.68 0 0 Z " fill="#2081BF" transform="translate(614,525)"/>
<path d="M0 0 C0.66 1.32 1.32 2.64 2 4 C2.66 4 3.32 4 4 4 C7.34821429 10.96428571 7.34821429 10.96428571 6 15 C4.99267601 13.06629769 3.99436712 11.12789694 3 9.1875 C2.443125 8.10855469 1.88625 7.02960937 1.3125 5.91796875 C0 3 0 3 0 0 Z " fill="#287EB9" transform="translate(181,674)"/>
<path d="M0 0 C0.33 0.66 0.66 1.32 1 2 C0.26821134 4.07196631 -0.55899003 6.1108552 -1.4375 8.125 C-1.91058594 9.22070312 -2.38367188 10.31640625 -2.87109375 11.4453125 C-3.24363281 12.28835938 -3.61617187 13.13140625 -4 14 C-4.9113287 11.47942631 -5.08517871 10.26674385 -4.2578125 7.67578125 C-3.88398437 6.89589844 -3.51015625 6.11601562 -3.125 5.3125 C-2.75632812 4.52488281 -2.38765625 3.73726563 -2.0078125 2.92578125 C-1 1 -1 1 0 0 Z " fill="#1C74B2" transform="translate(737,359)"/>
<path d="M0 0 C0.99 0.33 1.98 0.66 3 1 C1.4050992 2.19991599 -0.20126147 3.38461318 -1.8125 4.5625 C-2.70582031 5.22378906 -3.59914063 5.88507813 -4.51953125 6.56640625 C-5.33808594 7.03949219 -6.15664063 7.51257813 -7 8 C-7.99 7.67 -8.98 7.34 -10 7 C-6.81516089 4.36113331 -3.7101179 1.85505895 0 0 Z " fill="#2B7FB8" transform="translate(817,324)"/>
<path d="M0 0 C-0.99 0.33 -1.98 0.66 -3 1 C-3 1.66 -3 2.32 -3 3 C-5.97 3.66 -8.94 4.32 -12 5 C-12.33 4.34 -12.66 3.68 -13 3 C-11.21189234 2.30329584 -9.41937948 1.61788811 -7.625 0.9375 C-6.62726562 0.55464844 -5.62953125 0.17179687 -4.6015625 -0.22265625 C-2 -1 -2 -1 0 0 Z " fill="#1D71B0" transform="translate(810,330)"/>
<path d="M0 0 C-1.6188996 1.03048037 -3.24532489 2.04914678 -4.875 3.0625 C-5.77992188 3.63097656 -6.68484375 4.19945312 -7.6171875 4.78515625 C-8.40351563 5.18605469 -9.18984375 5.58695313 -10 6 C-10.66 5.67 -11.32 5.34 -12 5 C-8.42937391 1.05351854 -5.33493882 -1.67637143 0 0 Z " fill="#277EB8" transform="translate(514,655)"/>
<path d="M0 0 C-1.48781815 3.78717347 -3.61988409 5.77407001 -7 8 C-7.99 7.67 -8.98 7.34 -10 7 C-8.71372289 5.82739389 -7.42080217 4.6620717 -6.125 3.5 C-5.04605469 2.52546875 -5.04605469 2.52546875 -3.9453125 1.53125 C-2 0 -2 0 0 0 Z " fill="#1D76B5" transform="translate(618,581)"/>
<path d="M0 0 C2 1.3125 2 1.3125 4 4 C4.36089448 7.68855385 4.22933459 11.3051649 4 15 C3.67 15 3.34 15 3 15 C2.92652344 14.06027344 2.92652344 14.06027344 2.8515625 13.1015625 C2.77679687 12.28429687 2.70203125 11.46703125 2.625 10.625 C2.55539062 9.81289062 2.48578125 9.00078125 2.4140625 8.1640625 C2.17107412 5.79665809 2.17107412 5.79665809 0 4 C0 2.68 0 1.36 0 0 Z " fill="#338FC8" transform="translate(689,231)"/>
<path d="M0 0 C-0.33 0.66 -0.66 1.32 -1 2 C-3.06640625 2.6328125 -3.06640625 2.6328125 -5.5625 3.125 C-6.38878906 3.29257812 -7.21507812 3.46015625 -8.06640625 3.6328125 C-8.70449219 3.75398437 -9.34257812 3.87515625 -10 4 C-10 3.34 -10 2.68 -10 2 C-8.71211992 1.46987262 -7.41953322 0.9511671 -6.125 0.4375 C-5.40570313 0.14746094 -4.68640625 -0.14257812 -3.9453125 -0.44140625 C-2 -1 -2 -1 0 0 Z " fill="#1B76B6" transform="translate(423,698)"/>
<path d="M0 0 C1.58971965 2.38457948 2.86741593 4.6304124 4.125 7.1875 C4.47820312 7.90292969 4.83140625 8.61835937 5.1953125 9.35546875 C5.46085937 9.89816406 5.72640625 10.44085937 6 11 C2.24719386 9.30618687 0.72799116 7.81976994 -1 4 C-0.6875 1.6875 -0.6875 1.6875 0 0 Z " fill="#257FBD" transform="translate(302,635)"/>
<path d="M0 0 C0.66 0.33 1.32 0.66 2 1 C-1.17320782 4.53586014 -3.16743695 6.58578031 -8 7 C-5.4837822 4.39391727 -2.94865641 2.10618315 0 0 Z " fill="#2384C3" transform="translate(557,571)"/>
<path d="M0 0 C0 0.33 0 0.66 0 1 C-1.41377782 1.36552803 -2.83120576 1.71695495 -4.25 2.0625 C-5.03890625 2.25972656 -5.8278125 2.45695313 -6.640625 2.66015625 C-9.10394822 3.01497267 -10.65604132 2.76877544 -13 2 C-12.01 2 -11.02 2 -10 2 C-10 1.34 -10 0.68 -10 0 C-6.42355152 -1.2380014 -3.66305234 -0.74926071 0 0 Z " fill="#2984BF" transform="translate(349,721)"/>
<path d="M0 0 C-3.83325617 2.70582788 -6.32538149 3.32613618 -11 3 C-7.74003139 -0.25996861 -4.40088745 -1.46696248 0 0 Z " fill="#1572B5" transform="translate(395,708)"/>
<path d="M0 0 C2.25 0.25 2.25 0.25 4 1 C2.25 3.0625 2.25 3.0625 0 5 C-2.25 4.75 -2.25 4.75 -4 4 C-2.25 1.9375 -2.25 1.9375 0 0 Z " fill="#157DC4" transform="translate(265,478)"/>
<path d="M0 0 C1.8871875 0.0309375 1.8871875 0.0309375 3.8125 0.0625 C0.91157498 1.99645001 -0.08424737 2.36381941 -3.375 2.6875 C-4.633125 2.81125 -5.89125 2.935 -7.1875 3.0625 C-7.1875 2.4025 -7.1875 1.7425 -7.1875 1.0625 C-4.43671116 0.14557039 -2.82801087 -0.04636083 0 0 Z " fill="#267FBB" transform="translate(369.1875,714.9375)"/>
<path d="M0 0 C-3.03525486 2.02350324 -4.19426202 2.32124018 -7.6875 2.625 C-8.49574219 2.69976563 -9.30398438 2.77453125 -10.13671875 2.8515625 C-10.75160156 2.90054688 -11.36648438 2.94953125 -12 3 C-8.2391768 -0.7608232 -5.0273023 -0.25136512 0 0 Z " fill="#1770B5" transform="translate(359,672)"/>
<path d="M0 0 C5.75 0.875 5.75 0.875 8 2 C8 2.66 8 3.32 8 4 C8.66 4.33 9.32 4.66 10 5 C6.05140217 4.4359146 3.29120954 3.2568294 0 1 C0 0.67 0 0.34 0 0 Z " fill="#1B78BB" transform="translate(245,670)"/>
<path d="M0 0 C0.66 0.33 1.32 0.66 2 1 C-1.07999946 4.67230705 -3.2482602 5.56802365 -8 6 C-5.38485683 3.87961365 -2.80362384 1.86908256 0 0 Z " fill="#2784C2" transform="translate(509,603)"/>
<path d="M0 0 C0.33 0.99 0.66 1.98 1 3 C-0.65 4.65 -2.3 6.3 -4 8 C-4.66 7.67 -5.32 7.34 -6 7 C-2.25 1.125 -2.25 1.125 0 0 Z " fill="#0772BE" transform="translate(654,486)"/>
<path d="M0 0 C0.33 0.99 0.66 1.98 1 3 C-1.15343189 6.23014784 -2.27059611 7.75686537 -6 9 C-4.47291037 5.56404834 -2.40072955 2.88087546 0 0 Z " fill="#2580BE" transform="translate(673,462)"/>
<path d="M0 0 C0.33 0 0.66 0 1 0 C0.44687265 4.02992782 -0.1558062 8.02022924 -1 12 C-1.33 12 -1.66 12 -2 12 C-2.05422947 10.5629191 -2.09289723 9.12524538 -2.125 7.6875 C-2.14820313 6.88699219 -2.17140625 6.08648437 -2.1953125 5.26171875 C-2 3 -2 3 0 0 Z " fill="#1B6FB1" transform="translate(306,361)"/>
<path d="M0 0 C3.63 0.66 7.26 1.32 11 2 C8 4 8 4 4.8125 3.625 C3.884375 3.41875 2.95625 3.2125 2 3 C2 2.34 2 1.68 2 1 C1.34 0.67 0.68 0.34 0 0 Z " fill="#2A88C8" transform="translate(756,350)"/>
<path d="M0 0 C0.66 0.33 1.32 0.66 2 1 C0.02579865 3.52259061 -0.96745642 3.9929808 -4.1875 4.6875 C-5.5796875 4.8421875 -5.5796875 4.8421875 -7 5 C-4.88437775 2.67281553 -2.94982021 1.14186589 0 0 Z " fill="#2A86C5" transform="translate(398,246)"/>
<path d="M0 0 C0.99 0.33 1.98 0.66 3 1 C1.35 2.65 -0.3 4.3 -2 6 C-2.33 5.01 -2.66 4.02 -3 3 C-2.01 2.01 -1.02 1.02 0 0 Z " fill="#177BC1" transform="translate(621,518)"/>
<path d="M0 0 C0.33 0.99 0.66 1.98 1 3 C-0.65 4.65 -2.3 6.3 -4 8 C-4.66 7.67 -5.32 7.34 -6 7 C-4.02 4.69 -2.04 2.38 0 0 Z " fill="#1C73B2" transform="translate(694,505)"/>
<path d="M0 0 C0.33 0.99 0.66 1.98 1 3 C-0.32 4.32 -1.64 5.64 -3 7 C-3.99 6.67 -4.98 6.34 -6 6 C-4.02 4.02 -2.04 2.04 0 0 Z " fill="#1F71AC" transform="translate(824,317)"/>
<path d="M0 0 C0.8353125 0.37125 0.8353125 0.37125 1.6875 0.75 C-3.5859375 3.97265625 -3.5859375 3.97265625 -5.3125 4.75 C-5.9725 4.42 -6.6325 4.09 -7.3125 3.75 C-2.88173077 -0.31153846 -2.88173077 -0.31153846 0 0 Z " fill="#1D7ABA" transform="translate(758.3125,236.25)"/>
<path d="M0 0 C0.66 0.33 1.32 0.66 2 1 C-0.31 3.31 -2.62 5.62 -5 8 C-5 5 -5 5 -2.5 2.3125 C-1.675 1.549375 -0.85 0.78625 0 0 Z " fill="#308DC4" transform="translate(661,542)"/>
<path d="M0 0 C0.33 0 0.66 0 1 0 C0.25 6.625 0.25 6.625 -2 10 C-2.25 3.375 -2.25 3.375 0 0 Z " fill="#166EB0" transform="translate(309,350)"/>
<path d="M0 0 C1.98 0 3.96 0 6 0 C3.06171403 2.50298434 0.82097239 3.46930939 -3 4 C-2.34 3.67 -1.68 3.34 -1 3 C-0.67 2.01 -0.34 1.02 0 0 Z " fill="#2683C1" transform="translate(640,320)"/>
<path d="M0 0 C1.46726798 3.81489674 0.43336419 6.29011622 -1 10 C-1.33 10 -1.66 10 -2 10 C-2 7.36 -2 4.72 -2 2 C-1.34 2 -0.68 2 0 2 C0 1.34 0 0.68 0 0 Z " fill="#3086BB" transform="translate(837,293)"/>
<path d="M0 0 C3.37503669 1.1858237 5.64722731 2.27573689 8 5 C4.62537285 4.45276317 2.91765 3.9451 0 2 C0 1.34 0 0.68 0 0 Z " fill="#2682BF" transform="translate(812,236)"/>
<path d="M0 0 C1 4 1 4 1 4 Z " fill="#228ECC" transform="translate(297,436)"/>
<path d="M0 0 C0.99 0.495 0.99 0.495 2 1 C1.01 1.495 1.01 1.495 0 2 C0 1.34 0 0.68 0 0 Z " fill="#2887BD" transform="translate(240,726)"/>
<path d="" fill="#2989C3" transform="translate(0,0)"/>
<path d="" fill="#2B8AC1" transform="translate(0,0)"/>
<path d="M0 0 C0.66 0.66 1.32 1.32 2 2 C1.34 2 0.68 2 0 2 C0 1.34 0 0.68 0 0 Z " fill="#1C8CD0" transform="translate(592,538)"/>
<path d="" fill="#218DCD" transform="translate(0,0)"/>
<path d="M0 0 C0.99 0.495 0.99 0.495 2 1 C1.01 1.495 1.01 1.495 0 2 C0 1.34 0 0.68 0 0 Z " fill="#2387C3" transform="translate(390,248)"/>
<path d="M0 0 C2 1 2 1 2 1 Z " fill="#2583BC" transform="translate(331,726)"/>
<path d="M0 0 C2 1 2 1 2 1 Z " fill="#2684BC" transform="translate(243,726)"/>
<path d="M0 0 C2 1 2 1 2 1 Z " fill="#2984B9" transform="translate(232,723)"/>
<path d="M0 0 C2 1 2 1 2 1 Z " fill="#2685BE" transform="translate(364,719)"/>
<path d="" fill="#188CD1" transform="translate(0,0)"/>
<path d="" fill="#2A87BD" transform="translate(0,0)"/>
<path d="" fill="#1A8CCD" transform="translate(0,0)"/>
<path d="M0 0 C2 1 2 1 2 1 Z " fill="#1C8CCE" transform="translate(558,568)"/>
<path d="M0 0 C2 1 2 1 2 1 Z " fill="#1B8FD2" transform="translate(547,502)"/>
<path d="" fill="#218CCB" transform="translate(0,0)"/>
<path d="M0 0 C2 1 2 1 2 1 Z " fill="#2090D0" transform="translate(531,398)"/>
<path d="" fill="#1D8FD1" transform="translate(0,0)"/>
<path d="M0 0 C2 1 2 1 2 1 Z " fill="#2487C2" transform="translate(336,293)"/>
<path d="M0 0 C2 1 2 1 2 1 Z " fill="#2688C3" transform="translate(484,228)"/>
<path d="M0 0 C2 1 2 1 2 1 Z " fill="#2686BE" transform="translate(793,227)"/>
<path d="" fill="#5B503E" transform="translate(0,0)"/>
<path d="" fill="#2284C0" transform="translate(0,0)"/>
<path d="" fill="#2B83B4" transform="translate(0,0)"/>
<path d="" fill="#2B84B8" transform="translate(0,0)"/>
<path d="" fill="#2985BB" transform="translate(0,0)"/>
<path d="" fill="#2985BB" transform="translate(0,0)"/>
<path d="" fill="#2682B9" transform="translate(0,0)"/>
<path d="" fill="#2983BA" transform="translate(0,0)"/>
<path d="" fill="#2782B7" transform="translate(0,0)"/>
<path d="" fill="#2B84B7" transform="translate(0,0)"/>
<path d="" fill="#2A84B7" transform="translate(0,0)"/>
<path d="" fill="#2482BA" transform="translate(0,0)"/>
<path d="" fill="#2886BA" transform="translate(0,0)"/>
<path d="" fill="#2885BA" transform="translate(0,0)"/>
<path d="" fill="#2A86BD" transform="translate(0,0)"/>
<path d="" fill="#2B85BA" transform="translate(0,0)"/>
<path d="" fill="#2D85B4" transform="translate(0,0)"/>
<path d="" fill="#2983B7" transform="translate(0,0)"/>
<path d="" fill="#188CCC" transform="translate(0,0)"/>
<path d="" fill="#2A88BD" transform="translate(0,0)"/>
<path d="" fill="#2A85BC" transform="translate(0,0)"/>
<path d="" fill="#1E91D1" transform="translate(0,0)"/>
<path d="" fill="#1C8BCF" transform="translate(0,0)"/>
<path d="" fill="#198CCF" transform="translate(0,0)"/>
<path d="" fill="#1D8BCF" transform="translate(0,0)"/>
<path d="" fill="#1E8FD3" transform="translate(0,0)"/>
<path d="" fill="#1F90CF" transform="translate(0,0)"/>
<path d="" fill="#1A89CD" transform="translate(0,0)"/>
<path d="" fill="#1D8ACC" transform="translate(0,0)"/>
<path d="" fill="#1C8FD2" transform="translate(0,0)"/>
<path d="" fill="#1D8DCF" transform="translate(0,0)"/>
<path d="" fill="#1C8DCE" transform="translate(0,0)"/>
<path d="" fill="#1B8DCD" transform="translate(0,0)"/>
<path d="" fill="#1A8CCD" transform="translate(0,0)"/>
<path d="" fill="#1B8CCF" transform="translate(0,0)"/>
<path d="" fill="#2A85B7" transform="translate(0,0)"/>
<path d="" fill="#2385B9" transform="translate(0,0)"/>
<path d="" fill="#2986BB" transform="translate(0,0)"/>
<path d="" fill="#1889CA" transform="translate(0,0)"/>
<path d="" fill="#2585BD" transform="translate(0,0)"/>
<path d="" fill="#2784B7" transform="translate(0,0)"/>
<path d="" fill="#178DD3" transform="translate(0,0)"/>
<path d="" fill="#178BCF" transform="translate(0,0)"/>
<path d="" fill="#1C8FD0" transform="translate(0,0)"/>
<path d="" fill="#2888BD" transform="translate(0,0)"/>
<path d="" fill="#268AC2" transform="translate(0,0)"/>
<path d="" fill="#2285BF" transform="translate(0,0)"/>
<path d="" fill="#278AC0" transform="translate(0,0)"/>
<path d="" fill="#1A8AD0" transform="translate(0,0)"/>
<path d="" fill="#1989CE" transform="translate(0,0)"/>
<path d="" fill="#1C8DCF" transform="translate(0,0)"/>
<path d="" fill="#188CD0" transform="translate(0,0)"/>
<path d="" fill="#198DCF" transform="translate(0,0)"/>
<path d="" fill="#2487BF" transform="translate(0,0)"/>
<path d="" fill="#1A8CCF" transform="translate(0,0)"/>
<path d="" fill="#2389C2" transform="translate(0,0)"/>
<path d="" fill="#198ED1" transform="translate(0,0)"/>
<path d="" fill="#1A8DCD" transform="translate(0,0)"/>
<path d="" fill="#1B8DD1" transform="translate(0,0)"/>
<path d="" fill="#1A8CD1" transform="translate(0,0)"/>
<path d="" fill="#1C8ED0" transform="translate(0,0)"/>
<path d="" fill="#198CD2" transform="translate(0,0)"/>
<path d="" fill="#188CD1" transform="translate(0,0)"/>
<path d="" fill="#188ED1" transform="translate(0,0)"/>
<path d="" fill="#1B8FD0" transform="translate(0,0)"/>
<path d="" fill="#188DD2" transform="translate(0,0)"/>
<path d="" fill="#1A8DD3" transform="translate(0,0)"/>
<path d="" fill="#198FD3" transform="translate(0,0)"/>
<path d="" fill="#1A8ED0" transform="translate(0,0)"/>
<path d="" fill="#198BD1" transform="translate(0,0)"/>
<path d="" fill="#2284BF" transform="translate(0,0)"/>
<path d="" fill="#2586C0" transform="translate(0,0)"/>
<path d="" fill="#1D8DD2" transform="translate(0,0)"/>
<path d="" fill="#1D8DD2" transform="translate(0,0)"/>
<path d="" fill="#2486BC" transform="translate(0,0)"/>
<path d="" fill="#1D90D4" transform="translate(0,0)"/>
<path d="" fill="#2191D1" transform="translate(0,0)"/>
<path d="" fill="#1C8ECD" transform="translate(0,0)"/>
<path d="" fill="#298CC3" transform="translate(0,0)"/>
<path d="" fill="#1C8CCD" transform="translate(0,0)"/>
<path d="" fill="#1A8CCE" transform="translate(0,0)"/>
<path d="" fill="#2593CF" transform="translate(0,0)"/>
<path d="" fill="#1F8ECE" transform="translate(0,0)"/>
<path d="" fill="#1D8BCE" transform="translate(0,0)"/>
<path d="" fill="#1F8CCA" transform="translate(0,0)"/>
<path d="" fill="#2886C1" transform="translate(0,0)"/>
<path d="" fill="#248FCC" transform="translate(0,0)"/>
<path d="" fill="#1E8FD0" transform="translate(0,0)"/>
<path d="" fill="#1B8DCD" transform="translate(0,0)"/>
<path d="" fill="#2A89BF" transform="translate(0,0)"/>
<path d="" fill="#1E8FCD" transform="translate(0,0)"/>
<path d="" fill="#1D8CCD" transform="translate(0,0)"/>
<path d="" fill="#218BC8" transform="translate(0,0)"/>
<path d="" fill="#198BCE" transform="translate(0,0)"/>
<path d="" fill="#1C8DCF" transform="translate(0,0)"/>
<path d="" fill="#228CC9" transform="translate(0,0)"/>
<path d="" fill="#248ECC" transform="translate(0,0)"/>
<path d="" fill="#248BC8" transform="translate(0,0)"/>
<path d="" fill="#228BCC" transform="translate(0,0)"/>
<path d="" fill="#278CC7" transform="translate(0,0)"/>
<path d="" fill="#1992D5" transform="translate(0,0)"/>
<path d="" fill="#278CC4" transform="translate(0,0)"/>
<path d="" fill="#1E8FCE" transform="translate(0,0)"/>
<path d="" fill="#188ACF" transform="translate(0,0)"/>
<path d="" fill="#2488C0" transform="translate(0,0)"/>
<path d="" fill="#1D8BC9" transform="translate(0,0)"/>
<path d="" fill="#2987C3" transform="translate(0,0)"/>
<path d="" fill="#248ECA" transform="translate(0,0)"/>
<path d="" fill="#1E8DCF" transform="translate(0,0)"/>
<path d="" fill="#2888BF" transform="translate(0,0)"/>
<path d="" fill="#198DD2" transform="translate(0,0)"/>
<path d="" fill="#228FCD" transform="translate(0,0)"/>
<path d="" fill="#1E8FD1" transform="translate(0,0)"/>
<path d="" fill="#1C8ACF" transform="translate(0,0)"/>
<path d="" fill="#2384C1" transform="translate(0,0)"/>
<path d="" fill="#2C85B7" transform="translate(0,0)"/>
<path d="" fill="#1C89CC" transform="translate(0,0)"/>
<path d="" fill="#2688C3" transform="translate(0,0)"/>
<path d="" fill="#1D8DCE" transform="translate(0,0)"/>
<path d="" fill="#1F8FD0" transform="translate(0,0)"/>
<path d="" fill="#2688C1" transform="translate(0,0)"/>
<path d="" fill="#208DCD" transform="translate(0,0)"/>
<path d="" fill="#2383BF" transform="translate(0,0)"/>
<path d="" fill="#2189C2" transform="translate(0,0)"/>
<path d="" fill="#2186C3" transform="translate(0,0)"/>
<path d="" fill="#2488C1" transform="translate(0,0)"/>
<path d="" fill="#2889C2" transform="translate(0,0)"/>
<path d="" fill="#2286C5" transform="translate(0,0)"/>
<path d="" fill="#238DC7" transform="translate(0,0)"/>
<path d="" fill="#298BC4" transform="translate(0,0)"/>
<path d="" fill="#2787BF" transform="translate(0,0)"/>
<path d="" fill="#288BC3" transform="translate(0,0)"/>
<path d="" fill="#248AC5" transform="translate(0,0)"/>
<path d="" fill="#2388C3" transform="translate(0,0)"/>
<path d="" fill="#2789C3" transform="translate(0,0)"/>
<path d="" fill="#2A88C0" transform="translate(0,0)"/>
<path d="" fill="#2787C2" transform="translate(0,0)"/>
<path d="" fill="#298AC3" transform="translate(0,0)"/>
</svg>